<?xml version="1.0" standalone="no"?>
<!DOCTYPE svg PUBLIC "-//W3C//DTD SVG 20010904//EN"
 "http://www.w3.org/TR/2001/REC-SVG-20010904/DTD/svg10.dtd">
<svg version="1.0" xmlns="http://www.w3.org/2000/svg"
 width="300.000000pt" height="300.000000pt" viewBox="0 0 300.000000 300.000000"
 preserveAspectRatio="xMidYMid meet">
<metadata>
Created by potrace 1.10, written by Peter Selinger 2001-2011
</metadata>
<g transform="translate(0.000000,300.000000) scale(0.100000,-0.100000)"
fill="#000000" stroke="none">
<path d="M1446 2808 c-22 -5 -53 -17 -70 -27 -17 -10 -143 -85 -281 -166 -137
-81 -261 -157 -273 -169 -13 -11 -34 -39 -45 -61 -21 -38 -22 -55 -25 -368 -2
-215 0 -346 8 -380 21 -99 35 -112 332 -289 150 -89 290 -170 310 -180 44 -22
106 -23 153 -4 63 27 570 334 597 363 57 59 58 71 58 456 l0 353 -25 51 c-30
60 -30 60 -335 241 -330 195 -331 196 -404 180z m107 -64 c18 -9 151 -88 297
-174 192 -114 270 -166 282 -187 17 -30 17 -30 -6 -26 -31 6 -60 -9 -346 -187
-259 -160 -283 -177 -308 -225 -23 -44 -30 -661 -7 -705 20 -40 19 -43 -13
-37 -24 5 -121 60 -501 286 -102 61 -128 87 -141 147 -12 51 -12 637 0 688 5
22 17 51 28 65 17 23 402 262 551 342 61 33 116 37 164 13z m327 -794 c0 -15
7 -20 25 -20 27 0 28 -1 19 -24 -3 -9 -14 -16 -24 -16 -28 0 -70 -39 -70 -65
0 -27 26 -45 64 -45 53 0 61 -91 13 -154 -14 -18 -27 -45 -29 -61 -4 -33 -28
-47 -28 -16 0 17 -6 21 -30 21 -17 0 -30 5 -30 13 0 17 13 32 28 33 6 1 19 2
27 3 24 2 55 43 55 73 0 22 -5 29 -27 33 -64 13 -78 21 -81 44 -6 40 7 85 33
115 14 16 25 39 25 51 0 12 3 25 7 28 12 13 23 7 23 -13z"/>
<path d="M1663 952 c-100 -36 -163 -111 -163 -195 0 -103 70 -168 252 -232 89
-32 118 -55 118 -95 0 -42 -40 -70 -102 -70 -78 0 -113 26 -133 98 -6 21 -11
23 -78 20 -66 -3 -72 -5 -75 -26 -6 -37 18 -93 60 -138 77 -84 220 -116 332
-74 111 42 163 113 154 211 -10 98 -80 161 -240 215 -122 40 -154 80 -110 134
14 17 32 24 73 28 66 5 99 -17 117 -76 13 -42 29 -52 90 -52 68 0 85 28 60
101 -43 128 -215 201 -355 151z"/>
<path d="M333 949 c-18 -18 -19 -689 -1 -707 18 -18 268 -16 337 3 103 27 171
107 171 203 0 60 -19 108 -55 142 l-24 22 30 41 c24 33 29 50 29 99 0 32 -7
72 -14 87 -21 40 -79 88 -123 102 -56 18 -335 24 -350 8z m311 -150 c35 -28
35 -70 0 -98 -21 -17 -41 -21 -95 -21 l-69 0 0 70 0 70 69 0 c54 0 74 -4 95
-21z m17 -288 c17 -18 29 -40 29 -56 0 -16 -12 -38 -29 -56 -27 -27 -35 -29
-105 -29 l-76 0 0 85 0 85 76 0 c70 0 78 -2 105 -29z"/>
<path d="M1102 943 c-5 -10 -60 -168 -122 -350 -129 -380 -128 -366 -26 -361
l61 3 29 83 28 82 93 0 93 0 28 -83 29 -82 61 -3 c100 -5 101 -18 -22 350 -59
178 -113 335 -121 351 -12 24 -19 27 -68 27 -42 0 -56 -4 -63 -17z m87 -325
c12 -34 21 -66 21 -70 0 -4 -20 -8 -45 -8 -25 0 -45 2 -45 5 0 8 43 135 45
135 2 0 13 -28 24 -62z"/>
<path d="M2092 948 c-19 -19 -17 -691 2 -707 9 -7 38 -11 73 -9 l58 3 5 150 5
150 108 3 107 3 0 -139 c0 -170 2 -174 85 -170 l60 3 0 360 0 360 -60 3 c-82
4 -85 -1 -85 -160 l0 -129 -107 3 -108 3 -3 135 c-2 92 -6 137 -15 142 -19 12
-112 9 -125 -4z"/>
</g>
</svg>
