<?xml version="1.0" encoding="utf-8"?>
<!-- Generator: Adobe Illustrator 24.1.2, SVG Export Plug-In . SVG Version: 6.00 Build 0)  -->
<svg version="1.1" id="Warstwa_1" xmlns="http://www.w3.org/2000/svg" xmlns:xlink="http://www.w3.org/1999/xlink" x="0px" y="0px"
	 viewBox="0 0 430 430" style="enable-background:new 0 0 430 430;" xml:space="preserve">
<style type="text/css">
	.st0{fill:#121331;}
	.st1{fill:#000000;}
	.st2{fill-opacity:0;}
	.st3{fill:none;}
</style>
<g>
	<path class="st0" d="M367.74,247.76l-49.88-122.01c-0.56-1.37-2.8-2.88-4.28-2.89l-196.35-0.87c0,0-0.01,0-0.01,0
		c-1.47,0-3.69,1.48-4.25,2.84l-0.07-0.03c-0.62,1.67-1.9,4.79-4.6,11.3L62.13,247.6l-12.09-5.01
		c23.22-56.08,50.68-122.41,50.83-122.77c2.58-6.24,9.6-10.92,16.35-10.92c0.02,0,0.04,0,0.07,0l196.35,0.87
		c6.76,0.03,13.78,4.77,16.34,11.02l49.89,122.02L367.74,247.76z"/>
	<path class="st0" d="M358.95,321.1H71.12c-11.86,0-21.5-9.65-21.5-21.5v-48.54c0-11.86,9.65-21.5,21.5-21.5h287.83
		c11.86,0,21.5,9.65,21.5,21.5v48.54C380.46,311.45,370.81,321.1,358.95,321.1z M71.12,242.64c-4.64,0-8.42,3.77-8.42,8.42v48.54
		c0,4.64,3.78,8.42,8.42,8.42h287.83c4.64,0,8.42-3.77,8.42-8.42v-48.54c0-4.64-3.78-8.42-8.42-8.42H71.12z"/>
	<path class="st1" d="M206.55,258.5c4.13,0,7.48,3.23,7.48,7.21s-3.35,7.21-7.48,7.21c-4.13,0-7.48-3.23-7.48-7.21
		S202.42,258.5,206.55,258.5z"/>
	<path class="st1" d="M229.92,258.5c4.13,0,7.48,3.23,7.48,7.21s-3.35,7.21-7.48,7.21c-4.13,0-7.48-3.23-7.48-7.21
		S225.8,258.5,229.92,258.5z"/>
	<path class="st1" d="M253.3,258.5c4.13,0,7.48,3.23,7.48,7.21s-3.35,7.21-7.48,7.21c-4.13,0-7.48-3.23-7.48-7.21
		S249.17,258.5,253.3,258.5z"/>
	<path class="st1" d="M276.67,258.5c4.13,0,7.48,3.23,7.48,7.21s-3.35,7.21-7.48,7.21s-7.48-3.23-7.48-7.21
		S272.55,258.5,276.67,258.5z"/>
	<path class="st1" d="M300.05,258.5c4.13,0,7.48,3.23,7.48,7.21s-3.35,7.21-7.48,7.21s-7.48-3.23-7.48-7.21
		S295.92,258.5,300.05,258.5z"/>
	<path class="st1" d="M323.42,258.5c4.13,0,7.48,3.23,7.48,7.21s-3.35,7.21-7.48,7.21s-7.48-3.23-7.48-7.21
		S319.3,258.5,323.42,258.5z"/>
	<path class="st1" d="M346.8,258.5c4.13,0,7.48,3.23,7.48,7.21s-3.35,7.21-7.48,7.21s-7.48-3.23-7.48-7.21S342.67,258.5,346.8,258.5
		z"/>
	<path class="st1" d="M206.55,281.88c4.13,0,7.48,3.23,7.48,7.21s-3.35,7.21-7.48,7.21c-4.13,0-7.48-3.23-7.48-7.21
		S202.42,281.88,206.55,281.88z"/>
	<path class="st1" d="M229.92,281.88c4.13,0,7.48,3.23,7.48,7.21s-3.35,7.21-7.48,7.21c-4.13,0-7.48-3.23-7.48-7.21
		S225.8,281.88,229.92,281.88z"/>
	<path class="st1" d="M253.3,281.88c4.13,0,7.48,3.23,7.48,7.21s-3.35,7.21-7.48,7.21c-4.13,0-7.48-3.23-7.48-7.21
		S249.17,281.88,253.3,281.88z"/>
	<path class="st1" d="M276.67,281.88c4.13,0,7.48,3.23,7.48,7.21s-3.35,7.21-7.48,7.21s-7.48-3.23-7.48-7.21
		S272.55,281.88,276.67,281.88z"/>
	<path class="st1" d="M300.05,281.88c4.13,0,7.48,3.23,7.48,7.21s-3.35,7.21-7.48,7.21s-7.48-3.23-7.48-7.21
		S295.92,281.88,300.05,281.88z"/>
	<path class="st1" d="M323.42,281.88c4.13,0,7.48,3.23,7.48,7.21s-3.35,7.21-7.48,7.21s-7.48-3.23-7.48-7.21
		S319.3,281.88,323.42,281.88z"/>
	<path class="st1" d="M346.8,281.88c4.13,0,7.48,3.23,7.48,7.21s-3.35,7.21-7.48,7.21s-7.48-3.23-7.48-7.21
		S342.67,281.88,346.8,281.88z"/>
	<path class="st1" d="M101.83,297.36c-11.14,0-20.2-9.06-20.2-20.2s9.06-20.2,20.2-20.2s20.2,9.06,20.2,20.2
		S112.96,297.36,101.83,297.36z M101.83,267.44c-5.36,0-9.72,4.36-9.72,9.72s4.36,9.72,9.72,9.72s9.72-4.36,9.72-9.72
		S107.19,267.44,101.83,267.44z"/>
</g>
</svg>
