<?xml version="1.0" standalone="no"?>
<!DOCTYPE svg PUBLIC "-//W3C//DTD SVG 20010904//EN"
 "http://www.w3.org/TR/2001/REC-SVG-20010904/DTD/svg10.dtd">
<svg version="1.0" xmlns="http://www.w3.org/2000/svg"
 width="300.000000pt" height="300.000000pt" viewBox="0 0 300.000000 300.000000"
 preserveAspectRatio="xMidYMid meet">
<metadata>
Created by potrace 1.10, written by Peter Selinger 2001-2011
</metadata>
<g transform="translate(0.000000,300.000000) scale(0.100000,-0.100000)"
fill="#000000" stroke="none">
<path d="M1430 2836 c-54 -21 -1052 -585 -1078 -609 -13 -12 -34 -40 -45 -62
-22 -40 -22 -44 -22 -660 0 -616 0 -620 22 -660 38 -71 -10 -42 771 -479 321
-180 357 -198 410 -203 34 -3 71 1 93 9 64 23 1050 582 1081 612 16 15 39 47
51 70 22 41 22 45 25 616 4 614 2 646 -44 717 -34 52 -54 64 -499 314 -612
343 -611 343 -674 346 -31 1 -72 -3 -91 -11z m135 -117 c11 -4 243 -133 515
-287 390 -219 500 -286 518 -312 l22 -33 0 -582 0 -582 -22 -33 c-25 -36 -9
-26 -635 -378 -355 -200 -418 -232 -454 -232 -43 0 -17 -14 -926 496 -72 41
-143 88 -157 105 l-26 31 0 594 0 594 32 34 c20 21 197 126 448 266 228 128
450 252 492 277 110 63 130 68 193 42z"/>
<path d="M1370 2254 c-141 -27 -296 -110 -401 -216 -218 -220 -279 -559 -154
-843 87 -195 255 -344 470 -416 62 -21 88 -24 225 -24 144 0 161 2 234 28 95
33 194 90 260 148 65 58 149 160 139 169 -4 4 -84 52 -177 105 l-168 97 -47
-45 c-125 -123 -325 -135 -462 -26 -128 101 -167 292 -89 438 72 135 211 204
364 180 76 -13 130 -40 188 -97 l47 -45 175 102 176 103 -32 45 c-83 115 -228
220 -373 269 -69 24 -98 28 -215 30 -74 1 -146 0 -160 -2z m262 -119 c95 -20
219 -81 288 -143 l54 -49 -79 -46 c-73 -42 -82 -45 -100 -32 -102 74 -188 105
-292 105 -178 -1 -343 -108 -418 -273 -140 -306 87 -658 422 -657 104 1 185
30 288 105 18 13 27 10 99 -32 l79 -47 -54 -49 c-103 -92 -272 -157 -414 -157
-84 0 -215 34 -299 77 -89 46 -217 172 -263 258 -103 198 -102 433 4 625 49
89 168 205 259 253 134 70 283 91 426 62z"/>
<path d="M2383 1792 l-53 -3 0 -55 0 -54 -60 0 -60 0 0 55 0 55 -60 0 -60 0 0
-55 0 -55 -55 0 -55 0 0 -60 0 -60 55 0 55 0 0 -55 0 -55 -55 0 -55 0 0 -60 0
-60 55 0 54 0 3 -57 3 -58 58 -3 57 -3 0 61 0 60 60 0 60 0 0 -60 0 -60 55 0
55 0 0 60 0 60 60 0 60 0 0 60 0 60 -60 0 -60 0 0 55 0 55 60 0 60 0 0 60 0
60 -60 0 -59 0 -3 58 -3 57 -52 -3z m-53 -287 l0 -55 -60 0 -60 0 0 55 0 55
60 0 60 0 0 -55z"/>
</g>
</svg>
