<?xml version="1.0" standalone="no"?>
<!DOCTYPE svg PUBLIC "-//W3C//DTD SVG 20010904//EN"
 "http://www.w3.org/TR/2001/REC-SVG-20010904/DTD/svg10.dtd">
<svg version="1.0" xmlns="http://www.w3.org/2000/svg"
 width="300.000000pt" height="300.000000pt" viewBox="0 0 300.000000 300.000000"
 preserveAspectRatio="xMidYMid meet">
<metadata>
Created by potrace 1.10, written by Peter Selinger 2001-2011
</metadata>
<g transform="translate(0.000000,300.000000) scale(0.050000,-0.050000)"
fill="#000000" stroke="none">
<path d="M1900 5300 l0 -360 350 0 350 0 0 90 0 90 -240 0 -240 0 0 160 0 160
240 0 240 0 0 110 0 110 -350 0 -350 0 0 -360z"/>
<path d="M2680 5440 l0 -220 250 0 250 0 0 -60 0 -60 -250 0 -250 0 0 -80 0
-80 360 0 360 0 0 210 0 210 -260 0 c-247 0 -260 2 -260 40 0 38 13 40 215 40
300 1 305 3 305 122 l0 98 -360 0 -360 0 0 -220z"/>
<path d="M3480 5440 l0 -220 240 0 240 0 0 -60 0 -60 -240 0 -240 0 0 -80 0
-80 350 0 350 0 0 210 0 210 -260 0 c-247 0 -260 2 -260 40 0 38 13 40 260 40
l260 0 0 110 0 110 -350 0 -350 0 0 -220z"/>
<path d="M1147 4435 c16 -250 31 -426 123 -1435 40 -434 81 -889 91 -1010 11
-121 40 -449 64 -729 l45 -509 70 -25 c39 -13 120 -38 180 -55 61 -17 241 -69
400 -114 160 -46 317 -90 350 -99 33 -8 174 -48 313 -88 l254 -72 226 62 c125
33 353 97 507 141 154 44 330 95 390 111 61 17 151 43 200 57 50 14 128 36
175 48 67 19 85 33 85 68 0 24 14 188 31 364 18 176 39 410 48 520 55 664 203
2327 220 2470 11 94 24 244 30 335 l10 165 -1912 0 -1913 0 13 -205z m3144
-774 c-17 -268 -19 -277 -42 -298 -11 -9 -244 -115 -519 -235 l-500 -218 495
-5 c375 -4 496 -12 497 -30 3 -35 2 -61 -32 -475 -45 -565 -68 -822 -80 -911
l-11 -81 -165 -42 c-90 -22 -329 -84 -532 -137 l-367 -97 -509 129 c-280 71
-516 134 -526 139 -21 13 -53 249 -71 525 l-14 215 239 0 240 0 14 -185 c17
-227 -14 -202 332 -265 l290 -54 290 87 290 88 13 159 c7 88 16 223 20 300 l7
140 -883 5 -883 5 -11 65 c-6 36 -17 147 -24 246 l-14 182 577 248 576 249
-602 5 -601 6 -22 176 c-33 253 -32 259 32 269 30 4 607 9 1283 11 l1227 3
-14 -219z"/>
</g>
</svg>
