<?xml version="1.0" standalone="no"?>
<!DOCTYPE svg PUBLIC "-//W3C//DTD SVG 20010904//EN"
 "http://www.w3.org/TR/2001/REC-SVG-20010904/DTD/svg10.dtd">
<svg version="1.0" xmlns="http://www.w3.org/2000/svg"
 width="900.000000pt" height="900.000000pt" viewBox="0 0 900.000000 900.000000"
 preserveAspectRatio="xMidYMid meet">
<metadata>
Created by potrace 1.10, written by Peter Selinger 2001-2011
</metadata>
<g transform="translate(0.000000,900.000000) scale(0.100000,-0.100000)"
fill="#000000" stroke="none">
<path d="M4353 8883 c-15 -7 -41 -12 -56 -13 -67 -1 -218 -99 -299 -194 -68
-80 -108 -133 -108 -144 0 -5 -7 -15 -15 -22 -8 -7 -15 -22 -15 -34 0 -12 -5
-27 -11 -33 -12 -12 -29 -208 -32 -368 -1 -49 -3 -827 -5 -1728 -2 -1355 -4
-1639 -15 -1643 -16 -6 -96 68 -356 326 -102 102 -282 278 -399 390 -118 113
-246 238 -285 279 -81 82 -198 180 -248 207 -83 45 -253 68 -428 59 -102 -6
-122 -10 -185 -40 -93 -44 -164 -100 -238 -187 -107 -126 -104 -122 -151 -228
-29 -68 -40 -126 -44 -246 -4 -95 -1 -129 11 -159 9 -20 16 -47 16 -60 0 -12
11 -42 25 -66 14 -24 28 -51 31 -59 9 -19 67 -83 278 -304 671 -701 2030
-2064 2094 -2100 10 -5 42 -34 72 -63 30 -30 73 -66 95 -81 22 -15 51 -37 65
-50 14 -12 44 -32 67 -43 24 -11 45 -25 49 -30 3 -5 15 -9 27 -9 12 0 40 -7
62 -15 55 -20 243 -20 320 0 133 35 182 68 469 324 231 206 1753 1735 2072
2081 38 42 114 124 169 184 100 108 118 135 149 211 38 97 38 365 -1 453 -21
48 -51 111 -69 142 -43 79 -249 280 -286 280 -8 0 -19 5 -26 12 -58 58 -372
73 -552 25 -67 -17 -136 -60 -210 -130 -299 -284 -543 -519 -795 -769 -165
-163 -311 -306 -324 -317 -27 -23 -51 -27 -51 -8 3 62 -12 3485 -14 3527 -2
30 -9 68 -15 83 -6 16 -11 47 -11 71 0 44 -29 139 -49 159 -6 6 -11 17 -11 23
0 21 -170 187 -230 225 -68 43 -111 60 -175 68 -27 4 -57 11 -65 16 -22 14
-263 12 -297 -2z"/>
<path d="M1220 1569 c-124 -18 -182 -36 -264 -82 -27 -15 -51 -27 -54 -27 -17
0 -192 -157 -192 -173 0 -5 -13 -26 -30 -47 -16 -21 -30 -44 -30 -52 0 -8 -5
-19 -12 -26 -12 -12 -31 -71 -49 -152 -27 -125 -6 -327 42 -410 5 -8 12 -22
15 -30 3 -8 10 -22 15 -30 5 -8 12 -22 16 -30 22 -50 138 -177 213 -234 104
-77 156 -97 270 -102 86 -3 836 -9 3000 -24 652 -4 1345 -4 1540 1 195 4 733
10 1195 13 963 7 1044 9 1102 30 67 25 145 79 224 158 116 115 178 215 199
323 4 22 12 53 19 68 30 74 -19 391 -67 439 -7 7 -12 17 -12 24 0 7 -26 48
-59 91 -59 81 -145 154 -221 189 -8 4 -21 12 -29 18 -28 22 -89 39 -171 47
-47 5 -110 11 -140 14 -88 9 -6459 13 -6520 4z"/>
</g>
</svg>
