<?xml version="1.0" standalone="no"?>
<!DOCTYPE svg PUBLIC "-//W3C//DTD SVG 20010904//EN"
 "http://www.w3.org/TR/2001/REC-SVG-20010904/DTD/svg10.dtd">
<svg version="1.0" xmlns="http://www.w3.org/2000/svg"
 width="300.000000pt" height="300.000000pt" viewBox="0 0 300.000000 300.000000"
 preserveAspectRatio="xMidYMid meet">
<metadata>
Created by potrace 1.10, written by Peter Selinger 2001-2011
</metadata>
<g transform="translate(0.000000,300.000000) scale(0.100000,-0.100000)"
fill="#000000" stroke="none">
<path d="M2306 2768 c-13 -18 -36 -62 -51 -98 -15 -36 -38 -85 -53 -110 -34
-60 -133 -162 -208 -216 -77 -55 -226 -126 -321 -152 l-73 -20 -42 21 c-60 29
-197 36 -266 13 -28 -10 -68 -29 -88 -43 -49 -32 -96 -26 -204 28 -106 53
-218 160 -307 291 l-68 100 -5 -278 c-5 -268 -6 -281 -29 -332 -13 -29 -27
-51 -30 -49 -118 65 -218 82 -298 52 -175 -67 -219 -283 -100 -494 66 -118
210 -225 319 -238 43 -5 71 -18 148 -71 168 -113 373 -200 595 -253 88 -21
123 -24 295 -24 192 1 196 1 290 33 52 18 122 47 154 65 l60 33 95 -42 c93
-40 242 -92 327 -114 40 -10 41 -11 47 -61 12 -101 80 -172 222 -232 52 -21
159 -57 173 -57 3 0 2 73 -1 163 -8 230 -29 294 -114 344 -53 31 -131 36 -179
11 -30 -16 -30 -16 -115 39 -46 30 -119 73 -161 94 -43 22 -78 42 -78 45 0 3
18 36 40 73 82 138 143 330 175 553 52 360 34 897 -31 945 -10 7 -35 13 -55
13 -31 0 -42 -6 -63 -32z m63 -448 c1 -287 -26 -526 -84 -725 -28 -98 -99
-252 -138 -299 l-24 -30 -78 30 c-71 27 -78 32 -90 68 -15 44 -52 85 -114 129
-36 24 -43 27 -36 11 42 -101 44 -126 10 -153 -50 -38 -153 -54 -410 -60
l-240 -6 91 -27 c151 -46 272 -69 404 -75 l125 -6 64 -43 65 -43 -50 -21
c-121 -52 -190 -65 -354 -64 -130 0 -172 4 -265 26 -180 42 -375 122 -513 210
l-52 34 31 29 c45 43 71 101 77 170 l4 60 92 0 c79 0 98 4 142 27 27 15 56 34
63 42 12 14 18 11 55 -26 22 -22 70 -55 106 -72 59 -28 74 -31 160 -31 82 0
103 4 150 26 200 95 281 329 180 521 -16 31 -26 59 -22 61 4 3 32 12 62 22 71
23 200 88 270 135 121 83 221 194 277 309 l28 56 7 -50 c3 -27 7 -133 7 -235z
m-1585 -119 l38 -38 -33 -12 c-54 -19 -59 -16 -59 39 0 28 4 50 8 50 4 0 25
-17 46 -39z m741 -119 c47 -24 96 -73 120 -121 20 -41 34 -169 14 -136 -32 55
-97 105 -135 105 -15 0 -15 -3 4 -23 51 -55 12 -147 -63 -147 -53 0 -88 38
-83 90 l3 39 -22 -21 c-70 -66 -43 -220 46 -259 47 -21 37 -32 -21 -25 -75 10
-127 36 -174 88 -49 54 -68 103 -68 180 1 110 75 210 182 245 51 17 149 10
197 -15z m-567 -48 c58 -24 93 -62 85 -93 -9 -40 -13 -42 -36 -26 -12 8 -29
15 -39 15 -17 0 -16 -2 2 -20 43 -43 7 -120 -55 -120 -44 0 -79 41 -71 83 7
35 -8 27 -30 -15 -11 -22 -15 -48 -12 -84 5 -57 22 -84 73 -115 l30 -19 -30 0
c-59 1 -109 33 -143 93 -17 30 -36 58 -42 62 -5 3 -10 29 -10 56 0 143 146
239 278 183z m-498 -187 c66 -31 145 -115 183 -194 27 -57 32 -80 32 -138 0
-80 -15 -113 -68 -146 -68 -42 -188 -7 -277 82 -48 48 -102 145 -115 204 l-6
30 19 -30 c31 -48 58 -67 97 -67 67 0 115 58 115 140 0 55 -14 89 -52 124
l-31 29 29 -6 c16 -4 49 -17 74 -28z m2268 -928 c21 -19 35 -76 47 -181 8 -72
0 -74 -87 -15 -50 33 -66 50 -76 82 -33 99 48 178 116 114z"/>
<path d="M810 694 c-81 -35 -120 -101 -120 -201 1 -149 82 -227 235 -226 40 0
93 7 123 17 l52 18 0 104 0 104 -85 0 -85 0 0 -35 c0 -33 2 -35 35 -35 34 0
35 -1 35 -40 0 -34 -4 -42 -26 -50 -30 -12 -89 -3 -121 17 -48 32 -68 129 -39
196 33 80 132 95 264 40 10 -4 12 6 10 38 -3 40 -6 45 -38 56 -51 17 -197 15
-240 -3z"/>
<path d="M1200 490 l0 -220 55 0 55 0 0 220 0 220 -55 0 -55 0 0 -220z"/>
<path d="M1422 493 l3 -218 52 -3 52 -3 3 158 3 158 47 -110 46 -110 38 0 38
0 46 107 c25 59 49 108 54 108 5 0 7 -69 5 -152 l-4 -153 53 -3 52 -3 0 221 0
221 -72 -3 -72 -3 -46 -107 c-26 -59 -49 -110 -52 -113 -3 -3 -27 46 -54 110
l-48 115 -73 0 -73 0 2 -217z"/>
<path d="M2020 491 l0 -221 55 0 55 0 0 80 0 80 70 0 c50 0 82 6 109 20 66 33
91 122 51 187 -36 59 -60 68 -207 71 l-133 4 0 -221z m224 123 c20 -19 21 -77
3 -93 -8 -6 -36 -12 -63 -13 l-49 -3 -3 63 -3 62 50 0 c32 0 55 -6 65 -16z"/>
</g>
</svg>
