<?xml version="1.0" standalone="no"?>
<!DOCTYPE svg PUBLIC "-//W3C//DTD SVG 20010904//EN"
 "http://www.w3.org/TR/2001/REC-SVG-20010904/DTD/svg10.dtd">
<svg version="1.0" xmlns="http://www.w3.org/2000/svg"
 width="300.000000pt" height="300.000000pt" viewBox="0 0 300.000000 300.000000"
 preserveAspectRatio="xMidYMid meet">
<metadata>
Created by potrace 1.10, written by Peter Selinger 2001-2011
</metadata>
<g transform="translate(0.000000,300.000000) scale(0.100000,-0.100000)"
fill="#000000" stroke="none">
<path d="M1333 2828 l-93 -92 96 -97 c95 -96 97 -97 143 -96 83 1 141 -59 141
-145 0 -41 4 -48 93 -136 89 -89 94 -92 137 -92 87 0 140 -57 140 -149 0 -38
-6 -56 -25 -79 -92 -109 -255 -49 -255 93 0 50 -1 52 -80 130 l-80 80 0 -232
c0 -219 1 -233 20 -246 50 -35 65 -127 30 -185 -27 -43 -99 -76 -146 -67 -46
8 -101 58 -114 103 -14 51 4 109 46 149 l34 32 0 234 0 235 -25 16 c-35 23
-58 74 -57 127 1 45 -1 47 -94 140 l-94 94 -280 -280 -280 -281 0 -44 0 -44
412 -413 c432 -432 450 -447 507 -424 15 7 213 197 439 424 375 375 412 416
412 445 0 18 -6 45 -14 60 -8 15 -196 208 -418 430 l-404 402 -48 0 c-48 0
-50 -2 -143 -92z"/>
<path d="M1462 1020 c-45 -19 -51 -96 -9 -125 44 -31 113 -7 118 40 4 54 -1
66 -36 81 -39 16 -42 16 -73 4z"/>
<path d="M1767 934 c-4 -4 -7 -17 -7 -28 0 -37 -39 -87 -80 -104 -33 -14 -40
-22 -40 -44 0 -21 5 -28 19 -28 50 0 51 -3 52 -154 0 -81 5 -156 12 -176 21
-62 112 -87 223 -59 35 9 44 16 44 33 0 37 -13 44 -68 43 -77 -3 -82 7 -82
170 0 99 3 133 13 135 6 1 35 2 62 2 54 1 55 2 55 46 l0 30 -65 0 -64 0 -3 68
c-3 67 -3 67 -33 70 -17 2 -34 0 -38 -4z"/>
<path d="M991 781 c-74 -19 -121 -81 -121 -159 0 -49 11 -75 48 -114 l25 -27
-41 -45 c-44 -48 -52 -75 -27 -96 20 -17 19 -37 -5 -67 -30 -38 -26 -80 10
-113 36 -34 89 -45 205 -45 139 1 223 50 232 137 11 101 -27 127 -207 141 -69
6 -127 12 -129 14 -2 2 2 14 9 28 12 23 19 25 84 25 47 0 85 7 112 19 74 33
108 109 80 176 -22 52 -21 54 24 61 36 6 40 10 40 35 l0 29 -78 0 c-44 0 -112
2 -153 5 -41 2 -89 0 -108 -4z m157 -97 c50 -56 9 -144 -67 -144 -54 0 -85 20
-94 60 -12 48 5 88 45 105 42 19 87 10 116 -21z m37 -414 c44 -37 -4 -80 -98
-87 -84 -7 -137 14 -137 54 0 49 15 55 122 51 58 -3 103 -10 113 -18z"/>
<path d="M1397 783 c-17 -17 -6 -53 21 -65 l27 -13 0 -155 0 -155 -27 -3 c-24
-3 -28 -8 -28 -33 l0 -29 120 0 120 0 0 29 c0 25 -4 30 -27 33 l-28 3 -3 198
-2 197 -84 0 c-45 0 -86 -3 -89 -7z"/>
</g>
</svg>
