<?xml version="1.0" standalone="no"?>
<!DOCTYPE svg PUBLIC "-//W3C//DTD SVG 20010904//EN"
 "http://www.w3.org/TR/2001/REC-SVG-20010904/DTD/svg10.dtd">
<svg version="1.0" xmlns="http://www.w3.org/2000/svg"
 width="300.000000pt" height="300.000000pt" viewBox="0 0 300.000000 300.000000"
 preserveAspectRatio="xMidYMid meet">
<metadata>
Created by potrace 1.10, written by Peter Selinger 2001-2011
</metadata>
<g transform="translate(0.000000,300.000000) scale(0.050000,-0.050000)"
fill="#000000" stroke="none">
<path d="M1480 5320 l0 -360 120 0 120 0 0 120 0 120 120 0 120 0 0 -120 0
-120 120 0 120 0 0 360 0 360 -119 0 -119 0 -6 -115 -6 -115 -110 0 -110 0 -6
115 -6 115 -119 0 -119 0 0 -360z"/>
<path d="M2300 5560 l0 -120 99 0 100 0 5 -235 6 -235 125 -6 125 -6 0 241 0
241 100 0 100 0 0 120 0 120 -330 0 -330 0 0 -120z"/>
<path d="M3080 5320 l0 -360 109 0 109 0 6 175 6 175 82 -126 82 -126 83 126
83 126 0 -175 0 -175 120 0 120 0 0 360 0 360 -125 0 -125 0 -77 -124 -76
-124 -68 109 c-38 60 -68 116 -69 124 0 8 -58 15 -130 15 l-130 0 0 -360z"/>
<path d="M4000 5320 l0 -360 290 0 290 0 0 120 0 120 -170 0 -170 0 0 240 0
240 -120 0 -120 0 0 -360z"/>
<path d="M1140 4591 c0 -53 340 -3838 345 -3841 3 -2 351 -99 775 -216 l770
-213 776 215 c668 184 777 220 784 254 4 22 81 873 169 1890 89 1018 165 1870
169 1895 l6 45 -1897 0 c-1635 0 -1897 -4 -1897 -29z m3071 -906 c-7 -85 -18
-193 -24 -240 l-12 -85 -910 0 -910 0 12 -85 c6 -47 17 -155 24 -240 l14 -155
870 0 870 0 -11 -75 c-6 -41 -36 -365 -67 -720 -30 -355 -60 -653 -66 -662 -6
-9 -227 -75 -491 -148 l-480 -132 -470 131 c-258 71 -477 137 -486 145 -17 16
-72 522 -73 667 l-1 75 235 -5 235 -6 16 -179 c19 -216 -20 -181 290 -263
l260 -69 255 70 c306 84 268 46 290 294 10 114 23 250 29 302 l11 95 -826 0
-827 0 -56 645 c-30 355 -60 679 -66 720 l-11 75 1195 0 1195 0 -14 -155z"/>
</g>
</svg>
