<?xml version="1.0" standalone="no"?>
<!DOCTYPE svg PUBLIC "-//W3C//DTD SVG 20010904//EN"
 "http://www.w3.org/TR/2001/REC-SVG-20010904/DTD/svg10.dtd">
<svg version="1.0" xmlns="http://www.w3.org/2000/svg"
 width="300.000000pt" height="300.000000pt" viewBox="0 0 300.000000 300.000000"
 preserveAspectRatio="xMidYMid meet">
<metadata>
Created by potrace 1.10, written by Peter Selinger 2001-2011
</metadata>
<g transform="translate(0.000000,300.000000) scale(0.100000,-0.100000)"
fill="#000000" stroke="none">
<path d="M1633 2813 c2 -121 -46 -191 -232 -342 -109 -89 -187 -168 -201 -206
-32 -84 7 -171 136 -304 51 -53 93 -91 94 -85 0 6 -24 47 -53 90 -30 44 -62
100 -72 126 -38 101 3 192 135 303 143 118 220 227 236 330 6 45 -7 109 -29
139 -13 17 -14 11 -14 -51z"/>
<path d="M1735 2467 c-148 -61 -258 -151 -285 -232 -23 -69 2 -154 69 -239 41
-52 48 -95 23 -146 -11 -22 -15 -40 -10 -40 5 0 31 22 58 49 77 77 83 139 21
226 -65 91 -75 137 -43 190 27 44 93 104 172 155 38 25 77 50 87 57 36 23 -11
13 -92 -20z"/>
<path d="M1932 1870 c-52 -12 -63 -30 -15 -23 72 9 133 -39 133 -106 0 -67
-57 -136 -169 -203 -55 -33 -33 -36 41 -7 133 52 208 127 208 209 0 93 -94
155 -198 130z"/>
<path d="M1125 1849 c-78 -13 -185 -50 -213 -74 l-26 -22 25 -17 c39 -25 109
-35 284 -42 248 -10 503 18 593 65 46 25 36 25 -113 4 -160 -22 -588 -25 -624
-4 l-25 14 23 18 c12 10 48 26 79 36 96 29 95 39 -3 22z"/>
<path d="M1089 1620 c-71 -37 -56 -77 40 -107 82 -26 391 -25 511 1 129 28
130 28 86 55 -36 22 -39 23 -124 9 -107 -16 -415 -16 -456 1 -23 9 -27 15 -22
36 4 14 5 25 4 25 -2 -1 -19 -10 -39 -20z"/>
<path d="M1124 1407 c-52 -45 -12 -81 122 -113 121 -28 383 -4 468 43 15 8 11
13 -33 35 -50 24 -52 24 -133 11 -56 -10 -123 -13 -204 -9 -132 6 -179 17
-170 41 8 23 -19 18 -50 -8z"/>
<path d="M881 1279 c-138 -44 -181 -105 -91 -129 149 -40 595 -62 815 -41 162
16 308 47 374 79 65 32 81 53 61 77 -14 16 -15 16 -20 -6 -7 -33 -57 -55 -165
-73 -315 -55 -898 -41 -978 24 l-22 18 55 26 c30 14 64 26 75 26 11 0 27 5 35
10 28 18 -72 10 -139 -11z"/>
<path d="M2099 1160 c-65 -48 -259 -92 -489 -111 -124 -11 -443 -7 -560 6
l-45 5 45 -15 c100 -34 462 -47 681 -25 197 20 348 69 385 125 22 33 15 38
-17 15z"/>
<path d="M797 884 c-4 -4 -7 -135 -7 -291 0 -311 -3 -330 -58 -374 l-31 -24
20 -24 c23 -28 52 -24 99 15 65 55 65 57 65 394 l0 305 -40 3 c-23 2 -44 0
-48 -4z"/>
<path d="M1027 724 c-44 -14 -48 -18 -45 -42 2 -21 8 -26 23 -24 11 2 51 6 88
9 83 6 107 -9 107 -67 l0 -37 -64 -5 c-79 -7 -134 -32 -163 -77 -42 -63 -21
-150 42 -177 50 -21 95 -17 151 11 27 14 50 25 52 25 1 0 2 -9 2 -20 0 -16 7
-20 35 -20 l35 0 0 175 c0 199 -7 227 -65 251 -44 18 -136 17 -198 -2z m173
-278 c0 -51 -2 -54 -34 -70 -19 -9 -46 -16 -60 -16 -51 0 -84 63 -53 102 21
26 50 37 100 38 l47 0 0 -54z"/>
<path d="M1837 725 c-27 -7 -50 -15 -52 -17 -2 -2 -1 -16 2 -31 4 -21 10 -26
22 -21 9 3 48 9 87 11 63 5 74 3 93 -16 13 -13 21 -34 21 -55 l0 -33 -70 -6
c-119 -10 -180 -60 -180 -149 0 -52 21 -85 66 -104 48 -20 94 -17 147 10 44
22 47 22 52 5 5 -14 16 -19 41 -19 l34 0 0 173 c0 185 -5 205 -53 241 -35 26
-140 31 -210 11z m173 -275 c0 -46 -3 -52 -32 -70 -65 -39 -128 -17 -128 45 0
51 34 73 113 74 l47 1 0 -50z"/>
<path d="M2142 728 c2 -5 8 -9 13 -9 5 0 11 4 13 9 1 5 -4 9 -13 9 -9 0 -14
-4 -13 -9z"/>
<path d="M1350 723 c-1 -4 27 -102 62 -216 l63 -208 58 3 59 3 24 60 c32 77
89 267 98 323 l6 43 -46 -3 -47 -3 -18 -89 c-25 -122 -58 -228 -69 -221 -6 4
-10 14 -11 23 0 9 -19 78 -42 152 l-43 135 -47 3 c-26 2 -47 -1 -47 -5z"/>
</g>
</svg>
