<?xml version="1.0" standalone="no"?>
<!DOCTYPE svg PUBLIC "-//W3C//DTD SVG 20010904//EN"
 "http://www.w3.org/TR/2001/REC-SVG-20010904/DTD/svg10.dtd">
<svg version="1.0" xmlns="http://www.w3.org/2000/svg"
 width="300.000000pt" height="300.000000pt" viewBox="0 0 300.000000 300.000000"
 preserveAspectRatio="xMidYMid meet">
<metadata>
Created by potrace 1.10, written by Peter Selinger 2001-2011
</metadata>
<g transform="translate(0.000000,300.000000) scale(0.050000,-0.050000)"
fill="#000000" stroke="none">
<path d="M2734 5688 c-8 -8 -14 -130 -14 -271 l0 -257 -150 0 -150 0 0 -90 0
-90 250 0 251 0 -6 355 -5 355 -81 6 c-44 3 -87 -1 -95 -8z"/>
<path d="M3034 5687 c-8 -7 -14 -107 -14 -220 l0 -207 240 0 240 0 0 -50 0
-50 -240 0 -240 0 0 -90 0 -90 340 0 340 0 0 220 0 220 -240 0 c-227 0 -240 2
-240 40 0 38 13 40 241 40 l241 0 -6 95 -6 95 -321 5 c-177 3 -328 0 -335 -8z"/>
<path d="M1133 4645 c-5 -8 -1 -100 9 -205 10 -104 23 -239 27 -300 39 -465
108 -1262 121 -1380 4 -38 17 -203 28 -366 12 -163 25 -303 29 -310 5 -8 14
-104 21 -214 8 -110 18 -236 22 -280 19 -170 31 -306 40 -431 29 -441 10 -402
220 -455 88 -22 186 -50 218 -63 32 -12 62 -18 67 -12 6 5 27 0 49 -11 21 -11
152 -52 292 -91 242 -67 278 -76 359 -95 19 -5 76 -22 125 -38 175 -57 279
-79 324 -68 25 6 96 25 156 43 61 18 124 36 140 40 121 31 636 175 660 184 17
7 44 14 60 17 17 2 107 27 200 55 94 29 199 58 235 65 99 20 95 1 143 620 25
318 77 926 103 1200 11 121 25 270 30 330 5 61 13 142 18 180 6 39 15 156 21
260 6 105 15 222 20 260 5 39 14 142 20 230 13 189 23 307 50 590 11 116 20
221 20 235 0 28 -3810 38 -3827 10z m1752 -2142 c5 -1331 5 -1338 -35 -1321
-22 9 -161 49 -310 88 -306 80 -369 98 -510 139 -55 16 -138 39 -185 51 l-85
22 0 210 c0 191 3 210 35 201 201 -56 363 -100 505 -140 l170 -47 5 1067 5
1067 200 0 199 0 6 -1337z m1491 1302 c11 -21 9 -89 -5 -171 -13 -74 -21 -151
-18 -170 5 -31 -26 -34 -374 -28 l-379 6 0 -374 0 -374 105 15 c58 7 128 18
155 22 204 35 396 60 413 55 20 -7 19 -164 -2 -346 -6 -49 -16 -158 -22 -240
-10 -130 -22 -230 -28 -230 -1 0 -7 -76 -13 -170 -6 -93 -14 -195 -17 -225 -3
-30 -7 -76 -8 -101 -3 -46 -3 -46 -303 -125 -101 -26 -172 -46 -398 -112 -147
-42 -271 -77 -275 -77 -4 0 -7 102 -7 226 l0 226 105 26 c137 33 499 140 509
149 34 34 43 525 10 518 -14 -3 -68 -10 -120 -15 -52 -5 -170 -23 -264 -40
-93 -16 -186 -30 -205 -30 -33 0 -35 52 -35 810 l0 810 579 0 c532 0 581 -3
597 -35z"/>
</g>
</svg>
