<?xml version="1.0" standalone="no"?>
<!DOCTYPE svg PUBLIC "-//W3C//DTD SVG 20010904//EN"
 "http://www.w3.org/TR/2001/REC-SVG-20010904/DTD/svg10.dtd">
<svg version="1.0" xmlns="http://www.w3.org/2000/svg"
 width="300.000000pt" height="300.000000pt" viewBox="0 0 300.000000 300.000000"
 preserveAspectRatio="xMidYMid meet">
<metadata>
Created by potrace 1.10, written by Peter Selinger 2001-2011
</metadata>
<g transform="translate(0.000000,300.000000) scale(0.100000,-0.100000)"
fill="#000000" stroke="none">
<path d="M1434 2796 c-17 -8 -45 -31 -63 -52 l-31 -39 6 34 7 33 -31 -16 c-35
-18 -62 -62 -62 -99 0 -25 -17 -47 -37 -47 -7 0 -31 -11 -53 -25 l-40 -25 -19
38 c-34 66 -74 88 -141 77 -46 -8 -100 -56 -132 -118 -33 -64 -31 -175 4 -243
24 -46 69 -93 112 -119 15 -9 15 -15 5 -44 -16 -45 2 -127 47 -209 l34 -63
-31 18 c-56 32 -177 163 -225 241 -66 109 -76 140 -59 189 9 25 15 98 17 191
3 144 2 152 -19 173 -11 12 -34 22 -49 22 -40 0 -57 -28 -50 -86 3 -26 3 -54
-1 -62 -9 -26 -60 -17 -143 25 -93 47 -151 53 -194 19 -53 -42 -25 -78 79
-102 67 -15 64 -21 -19 -36 -114 -21 -165 -67 -138 -125 18 -41 55 -43 123 -7
32 17 64 31 69 31 21 0 8 -18 -36 -49 -52 -38 -68 -69 -54 -106 14 -37 49 -32
126 21 66 45 68 46 83 26 17 -22 72 -52 94 -52 9 0 19 -27 30 -78 49 -228 232
-433 440 -493 26 -7 47 -18 47 -24 0 -10 -55 -157 -69 -185 -4 -8 -49 -38
-100 -66 -116 -64 -191 -136 -238 -232 -75 -150 -38 -228 119 -253 59 -10 125
-36 115 -45 -3 -3 -49 -10 -102 -15 -60 -6 -113 -18 -136 -30 -131 -66 -100
-252 58 -345 39 -23 54 -26 107 -22 112 8 268 92 378 205 73 74 94 137 62 180
-26 36 -80 63 -124 63 -43 0 -181 70 -210 107 -11 15 -20 41 -20 61 0 29 8 43
45 79 25 24 49 43 53 43 4 0 16 -15 26 -34 25 -46 111 -128 168 -159 153 -84
366 -81 498 6 l44 29 28 -33 c37 -44 57 -114 45 -154 -17 -53 -44 -73 -126
-90 -42 -10 -94 -23 -116 -31 -23 -8 -57 -11 -81 -7 -37 5 -44 2 -59 -21 -28
-43 -34 -90 -20 -172 15 -85 46 -155 102 -228 56 -74 90 -90 187 -90 69 0 90
5 140 29 32 16 75 49 97 74 35 39 39 50 39 95 0 47 -4 55 -37 88 -21 20 -75
55 -120 78 -46 24 -83 47 -83 51 0 14 83 10 136 -6 27 -8 70 -15 96 -15 85 0
128 72 113 187 -8 57 -35 154 -47 167 -17 20 -6 23 95 29 216 13 391 117 473
282 36 72 36 76 32 167 -5 111 -25 156 -102 233 -58 58 -122 91 -214 110 -54
12 -72 11 -119 -1 -106 -28 -156 -90 -157 -199 -1 -74 18 -121 56 -141 55 -28
93 -4 148 93 35 62 76 88 126 78 72 -13 144 -112 144 -195 0 -119 -106 -211
-299 -261 -143 -37 -216 -24 -308 56 -37 32 -41 39 -33 61 17 43 11 179 -9
253 l-19 68 60 28 c139 64 285 215 348 359 28 64 37 76 57 76 14 0 49 11 80
25 59 27 88 26 98 -5 10 -31 84 -92 108 -88 43 6 35 62 -18 131 -20 26 -31 47
-26 47 6 0 35 -16 65 -34 93 -60 136 -57 136 9 0 40 -28 66 -124 116 -36 19
-66 37 -66 41 0 4 38 7 85 5 67 -1 88 1 95 13 14 22 13 25 -19 59 -26 28 -35
31 -86 31 -32 0 -75 -5 -96 -12 -31 -9 -52 -8 -97 2 -31 7 -59 15 -61 17 -2 1
7 23 20 47 20 38 21 48 11 70 -15 34 -60 35 -98 3 -23 -20 -29 -37 -41 -118
-8 -52 -18 -119 -23 -149 -20 -134 -79 -225 -205 -315 -53 -38 -188 -95 -225
-95 -8 0 5 19 27 43 85 86 108 202 58 291 -30 55 -31 56 -2 56 24 0 79 30 115
64 40 35 74 115 79 181 4 51 1 68 -24 115 -44 87 -137 136 -217 116 -38 -9
-93 -62 -106 -101 l-12 -35 -41 28 c-62 41 -109 60 -182 73 -36 7 -65 15 -65
19 0 4 11 17 25 30 14 13 25 27 25 32 0 13 -63 9 -92 -6 -33 -17 -36 -6 -10
32 33 48 34 52 15 52 -10 -1 -32 -7 -49 -14z m-23 -94 c-11 -21 -15 -62 -6
-62 3 0 24 14 47 30 52 38 63 38 43 -1 -25 -48 -15 -56 67 -60 163 -9 314
-143 333 -295 8 -69 0 -78 -61 -62 -27 6 -56 18 -65 25 -24 20 -80 16 -104 -7
-34 -32 -133 -63 -181 -56 -61 8 -136 44 -162 77 -58 73 -166 1 -122 -82 16
-28 33 -24 26 6 -8 31 9 65 31 65 25 0 53 -30 53 -58 0 -20 3 -22 14 -13 11 9
26 7 67 -9 42 -17 69 -21 129 -18 41 2 83 8 93 12 13 6 17 4 17 -10 0 -13 7
-8 25 17 25 37 43 49 75 49 20 0 32 -23 24 -45 -7 -17 11 -21 21 -5 8 13 71
13 98 -1 57 -29 97 -91 97 -149 0 -15 -7 -45 -16 -66 -61 -146 -241 -233 -483
-234 -266 -1 -472 154 -474 354 -1 55 3 70 26 99 14 19 46 44 71 56 27 12 46
28 46 37 0 16 -8 16 -60 3 -24 -6 -24 41 1 107 27 74 108 157 167 174 40 10
40 11 40 56 -1 29 5 51 15 62 16 15 17 13 17 -36 0 -59 11 -67 31 -21 14 35
59 92 66 85 3 -2 0 -13 -6 -24z m-701 -42 c15 -28 -3 -319 -21 -347 -10 -18
-10 -29 6 -69 46 -124 124 -247 203 -322 72 -68 226 -162 266 -162 19 0 20 -7
5 -49 -10 -30 -13 -31 -48 -25 -140 24 -323 178 -398 334 -22 47 -46 112 -53
145 -7 33 -13 64 -14 70 -1 5 -19 10 -39 11 -38 1 -87 35 -87 60 0 29 -23 22
-96 -31 -42 -30 -81 -55 -85 -55 -5 0 -9 9 -9 20 0 13 21 36 55 63 44 34 55
47 53 67 -4 35 -42 37 -111 5 -60 -29 -100 -30 -105 -3 -5 24 39 49 116 64 37
8 77 19 90 26 47 24 15 59 -71 77 -59 13 -83 35 -56 52 28 18 82 8 148 -25 36
-19 76 -37 89 -41 20 -6 22 -13 22 -68 1 -89 51 -190 81 -160 7 7 1 20 -17 42
-21 25 -27 46 -32 96 -5 63 -4 65 28 95 31 29 32 31 25 90 -7 60 -7 60 19 60
15 0 30 -8 36 -20z m322 -29 c28 -11 83 -85 73 -100 -4 -7 -16 -3 -34 10 -20
14 -35 18 -54 14 -32 -8 -84 -65 -93 -101 -15 -61 20 -140 76 -169 l29 -15
-23 -25 c-13 -14 -28 -25 -33 -25 -18 0 -72 65 -93 112 -46 104 -13 236 73
288 36 22 46 24 79 11z m1018 -21 c37 -26 72 -97 72 -144 0 -53 -20 -109 -54
-150 -32 -39 -112 -96 -134 -96 -22 0 -3 46 25 58 49 21 75 69 79 143 8 139
-83 205 -156 113 -29 -36 -42 -36 -42 2 0 91 125 135 210 74z m-60 -92 c15
-17 20 -35 20 -81 0 -32 -5 -68 -11 -80 -14 -26 -50 -67 -59 -67 -4 0 -10 21
-14 48 -4 26 -17 69 -31 96 -26 55 -22 80 18 96 36 14 55 11 77 -12z m-920 -3
c9 -11 6 -27 -14 -79 -14 -35 -26 -81 -26 -100 0 -42 -9 -45 -37 -13 -45 49
-54 96 -28 147 27 53 80 75 105 45z m1390 -39 c0 -8 -9 -31 -21 -50 -25 -43
-22 -77 10 -92 32 -16 41 -34 34 -64 -6 -27 -56 -97 -85 -118 -19 -14 -25 -42
-9 -42 5 0 27 20 49 44 44 48 72 103 72 142 0 21 5 24 39 24 22 0 66 7 99 15
63 16 96 11 121 -19 16 -19 18 -19 -91 -16 l-88 2 0 -25 c0 -29 35 -60 115
-100 56 -28 100 -70 90 -86 -11 -19 -30 -12 -91 29 -68 46 -124 55 -124 20 0
-11 18 -43 40 -71 22 -28 40 -59 40 -70 0 -18 -1 -19 -25 -3 -13 9 -34 31 -46
50 -37 61 -74 68 -147 29 -26 -14 -64 -25 -84 -25 -27 0 -38 -4 -38 -15 0 -74
-160 -275 -280 -350 -45 -28 -134 -75 -143 -75 -6 0 -57 126 -57 140 0 6 9 10
21 10 36 0 131 30 199 63 91 45 197 151 239 240 32 67 56 173 67 287 7 81 12
98 34 120 23 23 60 27 60 6z m-622 -827 c25 -63 54 -154 65 -204 18 -79 19
-98 8 -159 -25 -148 -98 -247 -224 -306 -254 -119 -591 54 -605 310 -4 68 9
114 103 363 37 95 49 109 73 85 20 -20 14 -76 -20 -193 -27 -92 -32 -127 -32
-210 0 -85 4 -107 23 -145 40 -77 69 -107 132 -139 54 -27 73 -31 144 -31 72
0 90 4 144 31 81 41 126 87 165 168 28 60 30 74 29 161 -1 98 -12 150 -58 283
-26 77 -27 113 -3 105 7 -3 32 -56 56 -119z m-75 -34 c73 -223 60 -363 -42
-465 -65 -64 -110 -84 -206 -88 -91 -4 -133 9 -190 60 -54 47 -78 101 -83 190
-4 73 15 193 40 241 5 10 12 52 16 95 6 61 11 76 22 73 44 -13 259 -11 315 3
33 8 67 14 75 13 9 -1 28 -45 53 -122z m713 60 c71 -35 131 -94 164 -160 36
-73 35 -189 -3 -262 -51 -99 -166 -191 -297 -238 -49 -17 -213 -31 -252 -22
-23 6 -68 70 -57 81 3 3 23 1 45 -5 112 -32 353 36 454 127 96 87 112 218 41
324 -42 62 -89 90 -155 90 -66 0 -99 -24 -145 -105 -35 -62 -61 -81 -91 -65
-29 16 -40 43 -40 100 0 71 28 122 82 149 62 32 173 26 254 -14z m-1426 -384
c0 -38 2 -75 5 -83 3 -7 -12 -23 -34 -37 -61 -37 -85 -76 -86 -138 0 -44 4
-56 30 -83 17 -18 47 -41 68 -51 20 -11 37 -27 37 -35 0 -15 -3 -14 -27 1 -23
16 -28 16 -37 2 -10 -13 -15 -12 -37 7 -17 15 -56 29 -109 39 -105 21 -130 42
-130 107 0 63 40 141 110 209 51 51 167 128 198 130 8 1 12 -19 12 -68z m980
-306 c54 -114 72 -170 77 -248 5 -71 4 -80 -17 -102 -25 -27 -72 -33 -126 -16
-81 25 -141 33 -161 22 -17 -8 -22 -7 -27 5 -4 12 -15 15 -36 12 -48 -7 -30
16 19 24 92 16 161 85 161 161 0 33 -26 100 -58 150 l-25 38 31 43 c18 25 32
48 32 53 0 5 5 14 12 21 9 9 21 -1 50 -46 21 -31 52 -84 68 -117z m-863 -184
c42 -62 27 -119 -41 -155 -32 -17 -42 -18 -71 -7 -18 6 -56 14 -84 18 -28 3
-51 7 -51 8 0 20 26 65 38 65 21 0 62 39 62 59 1 37 15 41 52 16 21 -14 42
-25 47 -25 15 0 14 33 -1 49 -11 10 -9 12 7 9 10 -2 30 -18 42 -37z m93 14
c32 -17 45 -44 34 -77 -18 -60 -140 -176 -171 -163 -14 5 -9 11 28 30 35 18
52 36 68 68 25 51 26 72 6 111 -26 49 -17 58 35 31z m-393 -41 c2 -6 -12 -11
-34 -12 -60 -3 -95 -16 -115 -43 -28 -38 -10 -87 52 -135 27 -21 49 -44 50
-51 0 -22 44 -43 91 -43 39 0 54 6 89 35 48 40 65 44 73 15 6 -22 -12 -35 -87
-69 -73 -32 -150 -29 -208 8 -142 90 -148 274 -9 297 20 3 41 7 46 9 18 7 48
0 52 -11z m98 5 c-7 -11 -35 -12 -35 -1 0 4 9 8 20 9 11 1 18 -2 15 -8z m-65
-78 c0 -5 -3 -16 -6 -25 -5 -14 -8 -14 -29 0 -13 9 -28 13 -33 10 -6 -3 -15 1
-22 9 -11 13 -5 15 39 15 28 0 51 -4 51 -9z m-112 -46 c-13 -29 -38 -33 -38
-7 0 23 8 32 31 32 16 0 17 -3 7 -25z m879 -12 c-2 -26 0 -27 35 -24 l37 2 -1
-45 c0 -27 6 -56 16 -70 9 -14 16 -37 16 -51 0 -25 -2 -26 -32 -19 -18 5 -46
8 -63 7 -57 -2 -129 131 -95 173 10 11 72 50 87 54 1 0 1 -12 0 -27z m-127
-13 c-19 -35 -11 -88 21 -141 32 -51 31 -62 -7 -73 -29 -9 -43 27 -51 125 -5
67 -3 82 12 99 21 23 39 16 25 -10z m-670 11 c0 -5 -13 -19 -30 -31 -28 -20
-30 -20 -30 -3 0 11 5 24 12 31 14 14 48 16 48 3z m129 -22 l32 -11 -33 -29
c-18 -16 -46 -36 -62 -45 -55 -30 -102 9 -69 56 13 18 22 21 50 17 28 -5 34
-3 29 8 -7 18 10 19 53 4z m811 -79 c8 -5 11 -12 8 -16 -10 -9 -38 3 -38 16 0
12 10 13 30 0z m103 -56 c41 -21 107 -84 107 -103 0 -51 -89 -141 -161 -161
-46 -13 -155 -13 -182 1 -47 24 -107 96 -107 127 0 8 50 36 55 30 1 -2 7 -17
14 -35 27 -67 93 -101 150 -77 19 8 50 14 70 14 27 0 44 7 60 24 13 13 33 27
46 30 48 12 39 67 -18 110 -19 14 -39 26 -44 26 -6 0 -16 7 -23 15 -16 19 -7
19 33 -1z m-33 -45 c49 -11 80 -34 80 -58 0 -10 -5 -7 -13 9 -10 20 -20 25
-52 26 -22 0 -48 -4 -59 -9 -22 -11 -39 3 -30 26 7 20 13 20 74 6z m-160 -43
c0 -10 13 -16 36 -18 52 -4 65 -29 34 -63 -32 -35 -69 -30 -89 10 -8 17 -18
38 -23 47 -13 29 -9 38 17 38 15 0 25 -6 25 -14z m208 -32 c-4 -3 -12 5 -18
18 -12 22 -12 22 6 6 10 -10 15 -20 12 -24z m-48 -4 c6 -11 5 -21 -2 -28 -23
-23 -38 -13 -38 23 0 27 3 33 15 29 9 -4 20 -14 25 -24z"/>
<path d="M1375 2450 c-21 -24 -17 -122 7 -146 37 -38 78 35 58 104 -16 51 -42
68 -65 42z m24 -31 c-16 -10 -23 -4 -14 10 3 6 11 8 17 5 6 -4 5 -9 -3 -15z
m13 -39 c21 0 23 -19 5 -44 -16 -22 -30 -8 -41 39 -6 24 -5 28 5 18 7 -7 21
-13 31 -13z"/>
<path d="M1548 2443 c-34 -39 -31 -125 6 -147 45 -28 81 109 38 147 -23 21
-25 21 -44 0z m20 -34 c-11 -17 -10 -22 5 -33 21 -16 22 -45 2 -53 -23 -8 -29
3 -28 48 2 42 9 59 24 59 5 0 4 -9 -3 -21z"/>
<path d="M1244 2249 c-6 -11 16 -43 24 -34 3 3 11 0 19 -6 15 -13 17 -5 3 20
-12 23 -37 34 -46 20z"/>
<path d="M1687 2223 c-4 -3 -7 -16 -7 -27 1 -20 1 -20 11 -2 9 15 13 16 20 5
6 -11 11 -11 20 -2 6 6 8 16 5 22 -8 12 -39 15 -49 4z"/>
<path d="M1180 2150 c-19 -11 -48 -19 -63 -20 -18 0 -27 -5 -24 -12 2 -7 17
-13 33 -13 23 0 37 -10 66 -47 90 -113 271 -163 444 -122 99 23 160 59 198
117 13 19 27 27 47 27 16 0 29 5 29 10 0 6 -10 10 -22 10 -13 0 -38 9 -56 20
-44 27 -60 25 -33 -4 27 -29 19 -52 -32 -89 -85 -61 -203 -86 -322 -67 -94 15
-151 42 -207 98 -53 51 -55 57 -31 84 23 26 13 29 -27 8z"/>
<path d="M800 510 c0 -7 3 -10 7 -7 3 4 3 10 0 14 -4 3 -7 0 -7 -7z"/>
</g>
</svg>
