<?xml version="1.0" standalone="no"?>
<!DOCTYPE svg PUBLIC "-//W3C//DTD SVG 20010904//EN"
 "http://www.w3.org/TR/2001/REC-SVG-20010904/DTD/svg10.dtd">
<svg version="1.0" xmlns="http://www.w3.org/2000/svg"
 width="1140.000000pt" height="296.000000pt" viewBox="0 0 1140.000000 296.000000"
 preserveAspectRatio="xMidYMid meet">
<metadata>
Created by potrace 1.16, written by Peter Selinger 2001-2019
</metadata>
<g transform="translate(0.000000,296.000000) scale(0.100000,-0.100000)"
fill="#000000" stroke="none">
<path d="M50 2415 l0 -495 180 0 180 0 0 315 c0 173 4 315 8 315 5 0 98 -142
208 -315 l199 -314 166 -1 166 0 198 310 c109 171 202 313 207 316 4 3 8 -137
8 -310 l0 -316 180 0 180 0 0 495 0 495 -287 -2 -286 -3 -176 -257 c-97 -141
-180 -257 -186 -257 -5 0 -89 116 -185 259 l-175 259 -292 1 -293 0 0 -495z"/>
<path d="M2340 2423 c-145 -269 -265 -491 -267 -495 -2 -5 90 -8 204 -8 l208
0 50 90 50 90 315 0 315 0 50 -90 50 -90 207 0 206 0 -270 495 -271 495 -291
0 -292 0 -264 -487z m668 56 c57 -100 101 -183 99 -185 -2 -3 -97 -3 -210 -2
l-205 3 101 182 c56 101 104 183 107 183 3 0 51 -82 108 -181z"/>
<path d="M3860 2592 c0 -373 3 -391 80 -475 58 -64 135 -107 250 -140 143 -41
247 -52 490 -51 194 0 240 4 330 23 207 44 328 119 387 239 l28 57 3 333 3
332 -205 0 -206 0 0 -287 c0 -177 -4 -303 -11 -327 -25 -91 -100 -123 -309
-133 -220 -9 -347 21 -397 97 -23 32 -23 38 -23 341 l0 309 -210 0 -210 0 0
-318z"/>
<path d="M5560 2415 l0 -495 470 0 c259 0 514 5 568 10 369 40 571 184 614
437 33 196 -60 367 -245 453 -174 80 -272 90 -904 90 l-503 0 0 -495z m985
230 c181 -38 254 -122 225 -260 -16 -77 -56 -127 -132 -164 -80 -39 -181 -51
-445 -51 l-193 0 0 245 0 245 238 0 c169 0 257 -5 307 -15z"/>
<path d="M823 1079 c-253 -16 -455 -72 -595 -165 -71 -48 -110 -91 -149 -164
-22 -41 -24 -57 -24 -180 0 -128 1 -138 28 -193 99 -202 401 -317 830 -317
210 0 386 36 545 110 47 22 87 38 91 36 3 -2 22 -34 41 -70 l35 -66 113 0 112
0 0 88 c0 49 -3 150 -7 225 l-6 137 -314 0 -313 0 0 -35 0 -35 50 0 c28 0 50
-4 50 -9 0 -25 -52 -79 -100 -103 -70 -36 -171 -49 -315 -41 -163 9 -257 50
-325 145 -26 35 -30 50 -30 102 0 136 43 212 147 261 89 43 175 57 309 53 107
-3 126 -7 178 -32 44 -21 65 -40 85 -72 l26 -43 268 -1 268 0 -7 23 c-27 87
-102 176 -194 230 -155 90 -475 137 -797 116z"/>
<path d="M1980 575 l0 -495 665 0 665 0 0 120 0 120 -455 0 -455 0 0 80 0 80
405 0 405 0 0 100 0 100 -405 0 -405 0 0 80 0 80 455 0 455 0 0 115 0 115
-665 0 -665 0 0 -495z"/>
<path d="M3450 575 l0 -495 180 0 180 0 0 310 c0 171 4 310 8 310 5 0 159
-139 343 -310 l334 -309 273 -1 272 0 0 495 0 495 -180 0 -180 0 0 -301 c0
-193 -4 -299 -10 -297 -5 2 -165 137 -354 301 l-345 297 -261 0 -260 0 0 -495z"/>
<path d="M5170 575 l0 -495 665 0 665 0 0 120 0 120 -455 0 -455 0 0 80 0 80
405 0 405 0 0 100 0 100 -405 0 -405 0 0 80 0 80 455 0 455 0 0 115 0 115
-665 0 -665 0 0 -495z"/>
<path d="M6640 925 l0 -145 270 0 270 0 0 -350 0 -350 225 0 225 0 0 350 0
350 280 0 280 0 0 145 0 145 -775 0 -775 0 0 -145z"/>
<path d="M8320 575 l0 -495 665 0 665 0 0 120 0 120 -455 0 -455 0 0 80 0 80
405 0 405 0 0 100 0 100 -405 0 -405 0 0 80 0 80 455 0 455 0 0 115 0 115
-665 0 -665 0 0 -495z"/>
<path d="M9780 925 l0 -145 275 0 275 0 0 -350 0 -350 225 0 225 0 0 350 0
350 280 0 280 0 0 145 0 145 -780 0 -780 0 0 -145z"/>
</g>
</svg>
