<?xml version="1.0" standalone="no"?>
<!DOCTYPE svg PUBLIC "-//W3C//DTD SVG 20010904//EN"
 "http://www.w3.org/TR/2001/REC-SVG-20010904/DTD/svg10.dtd">
<svg version="1.0" xmlns="http://www.w3.org/2000/svg"
 width="300.000000pt" height="300.000000pt" viewBox="0 0 300.000000 300.000000"
 preserveAspectRatio="xMidYMid meet">
<metadata>
Created by potrace 1.10, written by Peter Selinger 2001-2011
</metadata>
<g transform="translate(0.000000,300.000000) scale(0.100000,-0.100000)"
fill="#000000" stroke="none">
<path d="M1210 2528 c-157 -88 -334 -188 -395 -221 -60 -33 -118 -68 -127 -78
-16 -16 -17 -56 -18 -462 0 -305 3 -453 11 -469 14 -32 804 -478 841 -475 39
3 829 449 823 465 -2 7 0 10 5 7 7 -4 10 155 10 460 0 308 -3 464 -10 460 -5
-3 -10 0 -10 8 0 9 -113 78 -272 167 -150 84 -328 184 -395 222 -67 38 -135
71 -150 73 -21 2 -99 -37 -313 -157z m493 -285 c95 -53 197 -110 227 -126 30
-17 63 -36 73 -42 21 -14 44 1 -271 -175 l-204 -113 -34 17 c-51 24 -458 246
-467 255 -4 4 48 38 115 76 68 38 177 99 243 137 66 37 126 67 133 68 7 0 91
-43 185 -97z m-448 -352 l250 -138 3 -286 c1 -158 -2 -287 -6 -287 -5 0 -121
63 -258 139 l-249 139 -3 286 c-1 157 1 286 5 285 5 0 121 -62 258 -138z m795
-145 l0 -284 -252 -141 c-205 -114 -254 -137 -257 -124 -2 10 0 140 4 289 l7
272 242 136 c132 74 244 135 249 135 4 1 7 -127 7 -283z"/>
<path d="M100 490 l0 -191 58 3 57 3 3 83 c2 45 6 82 10 81 4 0 38 -38 75 -85
l68 -84 50 0 49 0 0 190 0 190 -60 0 -59 0 -3 -87 -3 -88 -70 87 -70 87 -52 1
-53 0 0 -190z"/>
<path d="M1160 491 l0 -191 108 0 c127 1 185 11 221 37 49 37 36 135 -21 156
-9 3 -7 11 10 29 34 37 28 103 -11 132 -25 18 -45 21 -168 24 l-139 4 0 -191z
m204 103 c26 -10 20 -53 -8 -60 -61 -15 -99 9 -82 52 6 14 60 19 90 8z m20
-147 c10 -7 17 -22 14 -33 -3 -16 -13 -19 -66 -22 l-62 -3 0 29 c0 16 3 32 7
35 11 12 89 7 107 -6z"/>
<path d="M910 630 c0 -33 -4 -43 -20 -47 -16 -4 -20 -14 -20 -44 0 -32 3 -39
20 -39 18 0 20 -7 20 -54 0 -104 37 -148 125 -150 67 -1 77 7 61 51 -10 29
-18 38 -37 38 -22 0 -24 4 -27 58 l-3 57 31 0 c28 0 30 2 30 39 0 36 -3 40
-27 43 -24 3 -29 8 -33 43 l-5 40 -57 3 -58 3 0 -41z"/>
<path d="M630 599 c-119 -36 -151 -197 -52 -268 62 -44 171 -47 226 -6 18 14
18 15 -11 45 -27 28 -31 29 -61 18 -37 -14 -87 -1 -87 22 0 12 20 16 104 18
l103 3 -7 37 c-19 104 -113 161 -215 131z m98 -96 c14 -23 14 -23 -42 -23 -58
0 -60 3 -33 38 15 19 58 10 75 -15z"/>
<path d="M1690 604 c-96 -34 -122 -63 -128 -144 -5 -67 22 -115 82 -144 46
-23 130 -25 170 -5 38 18 41 28 13 62 -20 26 -24 27 -54 15 -39 -15 -86 -2
-91 25 -3 15 7 17 97 17 l101 0 0 38 c0 46 -30 96 -69 116 -33 17 -98 28 -121
20z m78 -101 c14 -23 14 -23 -42 -23 -58 0 -60 3 -33 38 15 19 58 10 75 -15z"/>
<path d="M1987 596 c-26 -7 -50 -15 -53 -18 -2 -3 3 -21 12 -41 15 -31 20 -34
41 -26 49 18 113 6 113 -22 0 -3 -27 -9 -59 -12 -77 -8 -107 -23 -122 -59 -34
-83 84 -158 165 -105 21 14 25 14 30 2 4 -11 21 -15 57 -15 l51 0 -4 113 c-4
121 -15 154 -63 175 -41 19 -117 22 -168 8z m113 -191 c0 -20 -24 -45 -44 -45
-8 0 -36 31 -36 41 0 11 36 27 63 28 12 1 17 -7 17 -24z"/>
<path d="M2425 595 c-24 -9 -41 -11 -43 -5 -2 6 -28 10 -58 10 l-54 0 0 -150
0 -150 55 0 55 0 0 75 c0 86 13 123 48 132 40 10 52 -18 52 -119 l0 -89 58 3
57 3 0 111 c-1 126 -12 155 -70 180 -42 17 -49 17 -100 -1z"/>
<path d="M2729 598 c-52 -13 -83 -50 -82 -95 1 -49 28 -71 101 -85 48 -9 62
-15 60 -27 -4 -22 -46 -25 -96 -8 l-41 14 -14 -36 c-18 -43 -14 -46 63 -61
106 -20 200 24 200 95 0 50 -34 82 -98 91 -61 8 -81 19 -65 35 12 12 74 9 106
-5 13 -7 20 -1 32 28 8 19 15 37 15 40 0 6 -97 26 -123 25 -12 -1 -38 -5 -58
-11z"/>
</g>
</svg>
