<?xml version="1.0" encoding="utf-8"?>
<!-- Generator: Adobe Illustrator 24.1.2, SVG Export Plug-In . SVG Version: 6.00 Build 0)  -->
<svg version="1.1" id="Warstwa_3" xmlns="http://www.w3.org/2000/svg" xmlns:xlink="http://www.w3.org/1999/xlink" x="0px" y="0px"
	 viewBox="0 0 430 430" style="enable-background:new 0 0 430 430;" xml:space="preserve">
<style type="text/css">
	.st0{fill:#000000;}
	.st1{fill:#121331;}
	.st2{fill:none;}
	.st3{fill:#000000;fill-opacity:0;}
</style>
<g>
	<path class="st0" d="M267.17,381.36H162.83c-2.63,0-4.99-1.64-5.91-4.11c-0.92-2.47-0.2-5.25,1.8-6.97l18.45-15.88l7.1-27.15
		c0.73-2.77,3.23-4.71,6.1-4.71h49.28c2.87,0,5.37,1.93,6.1,4.71l7.1,27.15l18.45,15.88c2,1.72,2.71,4.5,1.8,6.97
		C272.16,379.72,269.8,381.36,267.17,381.36z M179.8,368.76h70.39l-7.07-6.09c-0.97-0.83-1.66-1.94-1.98-3.18l-6.36-24.34h-39.55
		l-6.36,24.34c-0.32,1.24-1.02,2.35-1.98,3.18L179.8,368.76z"/>
	<path class="st1" d="M383.57,335.24H46.43c-14.19,0-25.73-11.54-25.73-25.73V74.37c0-14.19,11.54-25.73,25.73-25.73h337.15
		c14.19,0,25.73,11.54,25.73,25.73v235.14C409.3,323.7,397.76,335.24,383.57,335.24z M46.43,61.24c-7.24,0-13.13,5.89-13.13,13.13
		v235.14c0,7.24,5.89,13.13,13.13,13.13h337.15c7.24,0,13.13-5.89,13.13-13.13V74.37c0-7.24-5.89-13.13-13.13-13.13H46.43z
		 M377.1,276.23H52.9c-3.48,0-6.3-2.82-6.3-6.3V80.85c0-3.48,2.82-6.3,6.3-6.3H377.1c3.48,0,6.3,2.82,6.3,6.3v189.08
		C383.4,273.41,380.58,276.23,377.1,276.23z M59.2,263.63H370.8V87.15H59.2V263.63z"/>
	<path class="st2" d="M226.55,299.53c0,6.38-5.17,11.55-11.55,11.55s-11.55-5.17-11.55-11.55s5.17-11.55,11.55-11.55
		S226.55,293.15,226.55,299.53z"/>
</g>
</svg>
