<?xml version="1.0" encoding="utf-8"?>
<!-- Generator: Adobe Illustrator 24.1.2, SVG Export Plug-In . SVG Version: 6.00 Build 0)  -->
<svg version="1.1" id="Warstwa_1" xmlns="http://www.w3.org/2000/svg" xmlns:xlink="http://www.w3.org/1999/xlink" x="0px" y="0px"
	 viewBox="0 0 430 430" style="enable-background:new 0 0 430 430;" xml:space="preserve">
<style type="text/css">
	.st0{fill:#121331;}
	.st1{fill:#000000;}
	.st2{fill-opacity:0;}
	.st3{fill:none;}
</style>
<g>
	<path class="st0" d="M376.07,348.28H53.93c-3.42,0-6.2-2.78-6.2-6.2V129.94c0-3.42,2.78-6.2,6.2-6.2h322.14
		c3.42,0,6.2,2.78,6.2,6.2v212.14C382.27,345.51,379.49,348.28,376.07,348.28z M60.13,335.88h309.74V136.14H60.13V335.88z"/>
	<path class="st1" d="M215,322.32c-47.59,0-86.31-38.72-86.31-86.31c0-47.59,38.72-86.31,86.31-86.31s86.31,38.72,86.31,86.31
		C301.31,283.6,262.59,322.32,215,322.32z M215,162.1c-40.75,0-73.91,33.16-73.91,73.91c0,40.75,33.15,73.91,73.91,73.91
		s73.91-33.15,73.91-73.91C288.91,195.26,255.75,162.1,215,162.1z"/>
	<path class="st1" d="M215,296.7c-33.46,0-60.69-27.22-60.69-60.69s27.22-60.69,60.69-60.69s60.69,27.22,60.69,60.69
		S248.46,296.7,215,296.7z M215,187.72c-26.63,0-48.29,21.66-48.29,48.29c0,26.63,21.66,48.29,48.29,48.29s48.29-21.66,48.29-48.29
		C263.29,209.39,241.63,187.72,215,187.72z"/>
	<path class="st1" d="M334.57,186.36c-12.46,0-22.6-10.14-22.6-22.6s10.14-22.6,22.6-22.6c12.46,0,22.6,10.14,22.6,22.6
		S347.03,186.36,334.57,186.36z M334.57,153.56c-5.62,0-10.2,4.57-10.2,10.2s4.58,10.2,10.2,10.2c5.62,0,10.2-4.57,10.2-10.2
		S340.19,153.56,334.57,153.56z"/>
	<path class="st0" d="M121.23,136.14H87.58c-3.42,0-6.2-2.78-6.2-6.2v-26.65c0-3.42,2.78-6.2,6.2-6.2h33.65c3.42,0,6.2,2.78,6.2,6.2
		v26.65C127.43,133.36,124.65,136.14,121.23,136.14z M93.78,123.74h21.25v-14.25H93.78V123.74z"/>
	<path class="st0" d="M276.15,136.14h-122.3c-2.05,0-3.96-1.01-5.12-2.7c-1.16-1.69-1.4-3.84-0.66-5.75l16.4-42.02
		c0.93-2.38,3.22-3.95,5.78-3.95h89.5c2.55,0,4.85,1.57,5.78,3.95l16.4,42.02c0.74,1.91,0.5,4.06-0.66,5.75
		C280.11,135.13,278.2,136.14,276.15,136.14z M162.93,123.74h104.14l-11.56-29.62h-81.03L162.93,123.74z"/>
</g>
</svg>
