<?xml version="1.0" standalone="no"?>
<!DOCTYPE svg PUBLIC "-//W3C//DTD SVG 20010904//EN"
 "http://www.w3.org/TR/2001/REC-SVG-20010904/DTD/svg10.dtd">
<svg version="1.0" xmlns="http://www.w3.org/2000/svg"
 width="300.000000pt" height="300.000000pt" viewBox="0 0 300.000000 300.000000"
 preserveAspectRatio="xMidYMid meet">
<metadata>
Created by potrace 1.10, written by Peter Selinger 2001-2011
</metadata>
<g transform="translate(0.000000,300.000000) scale(0.100000,-0.100000)"
fill="#000000" stroke="none">
<path d="M1610 2630 c0 -252 0 -252 21 -247 36 10 179 -21 245 -52 167 -78
265 -260 234 -433 -28 -159 -126 -274 -275 -326 -68 -23 -189 -44 -211 -35
-12 4 -14 -32 -14 -246 l0 -252 73 2 c39 0 90 5 112 10 22 4 56 11 75 14 52 9
174 52 233 81 214 109 370 280 451 496 86 228 73 508 -34 718 -152 301 -460
497 -812 517 l-98 6 0 -253z m196 205 c247 -43 460 -166 599 -348 39 -50 101
-165 125 -230 85 -231 58 -544 -62 -725 -15 -24 -28 -45 -28 -48 0 -14 -105
-135 -151 -174 -57 -49 -189 -140 -202 -140 -4 0 -28 -9 -52 -20 -98 -45 -328
-90 -376 -75 -19 6 -20 17 -19 216 1 206 2 209 23 213 12 2 53 9 91 16 138 22
285 118 335 218 76 153 72 322 -13 466 -58 100 -202 183 -347 202 -95 12 -89
-3 -89 229 0 153 3 205 13 208 22 10 63 7 153 -8z"/>
<path d="M1320 2327 c-46 -61 -90 -118 -97 -125 -7 -7 -13 -17 -13 -21 0 -4
-8 -16 -18 -27 -15 -16 -99 -128 -195 -258 -12 -16 -29 -38 -37 -48 -14 -18
-7 -36 94 -236 79 -157 105 -217 95 -220 -8 -3 -111 -54 -229 -113 -118 -59
-215 -107 -216 -106 -1 1 -24 47 -51 101 l-50 99 -88 -119 c-49 -65 -95 -127
-103 -136 -12 -15 6 -31 184 -164 l198 -147 25 31 c14 17 39 48 54 69 16 21
229 305 473 632 245 326 446 597 447 601 1 4 -65 58 -148 120 -82 62 -159 120
-170 130 -11 9 -32 25 -46 34 l-25 16 -84 -113z m202 -18 c51 -39 121 -92 156
-117 66 -49 73 -64 43 -96 -10 -12 -62 -79 -115 -151 -53 -71 -110 -148 -127
-170 -17 -22 -82 -109 -145 -194 -101 -134 -179 -229 -160 -195 9 18 -14 73
-103 252 -44 90 -81 171 -81 180 0 10 10 28 23 42 12 14 36 44 52 67 42 60 76
106 103 140 12 15 52 69 89 118 37 50 70 92 75 93 4 2 8 8 8 13 0 17 62 89 76
89 7 0 55 -32 106 -71z m-369 -966 c-18 -28 -158 -217 -178 -240 -5 -6 -48
-63 -95 -127 -47 -63 -88 -115 -91 -116 -14 -1 -329 241 -329 252 0 13 130
188 140 188 4 0 19 -24 34 -54 15 -29 37 -63 50 -75 29 -27 33 -26 278 99 106
54 196 98 201 99 4 1 0 -11 -10 -26z"/>
<path d="M605 1958 c-116 -59 -214 -108 -219 -110 -4 -2 42 -103 103 -225 98
-197 130 -252 131 -226 0 4 -46 102 -102 216 -76 153 -100 211 -93 222 6 8 93
56 194 105 142 70 186 88 193 78 5 -7 27 -48 48 -90 36 -69 56 -97 64 -87 2 2
-22 54 -53 114 l-56 110 -210 -107z"/>
<path d="M2110 681 c-16 -31 4 -63 37 -59 34 4 52 32 37 56 -16 26 -60 28 -74
3z"/>
<path d="M130 500 l0 -190 30 0 30 0 0 74 0 74 76 4 c71 3 78 6 105 36 48 53
37 135 -23 172 -27 16 -51 20 -125 20 l-93 0 0 -190z m194 121 c9 -8 16 -28
16 -47 0 -45 -29 -64 -97 -64 l-53 0 0 66 0 66 59 -4 c33 -2 66 -10 75 -17z"/>
<path d="M723 579 c-17 -5 -43 -23 -57 -39 -76 -91 -16 -230 101 -230 88 0
133 47 133 141 0 66 -31 110 -88 127 -45 14 -45 14 -89 1z m80 -50 c66 -30 60
-143 -9 -169 -28 -11 -71 2 -90 28 -16 21 -18 86 -3 113 18 34 62 46 102 28z"/>
<path d="M1046 580 c-83 -25 -122 -131 -76 -207 25 -42 68 -63 126 -63 39 0
51 5 80 34 32 32 45 66 25 66 -5 0 -16 2 -23 5 -9 4 -19 -4 -26 -20 -26 -57
-112 -50 -138 11 -25 59 2 117 57 129 34 8 74 -13 83 -43 5 -14 13 -18 31 -14
14 2 25 10 25 17 0 22 -42 67 -76 81 -37 16 -47 16 -88 4z"/>
<path d="M1330 573 c-93 -48 -99 -194 -10 -247 54 -31 155 -13 179 33 8 15 6
20 -14 29 -19 9 -26 8 -32 -2 -24 -40 -79 -42 -120 -3 -44 40 -32 47 82 47
l106 0 -7 38 c-17 96 -104 146 -184 105z m104 -54 c47 -37 35 -49 -49 -49 -82
0 -89 7 -50 45 30 30 64 32 99 4z"/>
<path d="M1614 576 c-34 -15 -44 -32 -44 -77 0 -35 30 -57 102 -73 44 -9 54
-15 56 -35 4 -28 -12 -41 -54 -41 -31 0 -64 25 -64 49 0 8 -6 11 -16 7 -9 -3
-20 -6 -25 -6 -19 0 -8 -33 20 -61 25 -24 38 -29 80 -29 64 0 97 15 112 52 23
56 -15 93 -116 115 -34 7 -40 12 -40 33 0 22 5 25 37 28 28 2 40 -2 51 -19 13
-17 20 -20 41 -13 25 9 26 10 10 33 -17 24 -71 51 -101 51 -10 -1 -32 -7 -49
-14z"/>
<path d="M1900 579 c-53 -22 -72 -57 -54 -104 8 -21 49 -41 101 -50 46 -7 68
-26 60 -50 -14 -36 -101 -30 -118 9 -8 17 -17 22 -35 18 -32 -6 -30 -27 5 -63
25 -24 37 -29 81 -29 77 0 119 29 120 82 0 30 -37 65 -79 74 -79 16 -86 19
-86 44 0 22 5 25 39 28 31 3 43 -1 55 -17 11 -14 23 -19 39 -15 29 8 28 15 -5
46 -32 30 -86 42 -123 27z"/>
<path d="M2633 576 c-90 -41 -98 -201 -12 -247 37 -19 97 -15 123 10 12 11 26
21 30 21 4 0 6 -24 4 -52 l-3 -53 -97 -3 c-94 -3 -98 -4 -98 -25 0 -22 2 -22
112 -19 62 2 119 8 126 14 9 8 12 57 12 184 l0 174 -25 0 c-18 0 -25 -5 -25
-20 0 -25 -8 -25 -35 0 -28 27 -73 33 -112 16z m118 -65 c20 -20 29 -39 29
-61 0 -40 -47 -90 -85 -90 -38 0 -85 50 -85 90 0 40 47 90 85 90 16 0 38 -12
56 -29z"/>
<path d="M450 445 l0 -135 30 0 30 0 0 100 c0 110 6 120 69 120 26 0 31 4 31
25 0 21 -5 25 -30 25 -17 0 -39 -9 -50 -20 -11 -11 -23 -20 -26 -20 -3 0 -2 9
1 20 5 17 2 20 -24 20 l-31 0 0 -135z"/>
<path d="M2120 445 l0 -135 30 0 30 0 0 135 0 135 -30 0 -30 0 0 -135z"/>
<path d="M2250 445 l0 -135 30 0 30 0 0 94 c0 91 1 95 27 116 30 23 79 22 95
-3 4 -6 8 -56 8 -109 l0 -98 31 0 31 0 -4 111 c-3 107 -4 112 -31 135 -37 31
-105 33 -132 4 -10 -11 -22 -20 -27 -20 -5 0 -6 9 -3 20 5 17 2 20 -24 20
l-31 0 0 -135z"/>
</g>
</svg>
