<?xml version="1.0" standalone="no"?>
<!DOCTYPE svg PUBLIC "-//W3C//DTD SVG 20010904//EN"
 "http://www.w3.org/TR/2001/REC-SVG-20010904/DTD/svg10.dtd">
<svg version="1.0" xmlns="http://www.w3.org/2000/svg"
 width="300.000000pt" height="300.000000pt" viewBox="0 0 300.000000 300.000000"
 preserveAspectRatio="xMidYMid meet">
<metadata>
Created by potrace 1.10, written by Peter Selinger 2001-2011
</metadata>
<g transform="translate(0.000000,300.000000) scale(0.100000,-0.100000)"
fill="#000000" stroke="none">
<path d="M1405 2896 c-49 -6 -95 -14 -100 -18 -6 -3 -28 -9 -49 -13 -55 -11
-116 -73 -116 -119 0 -19 -3 -37 -7 -39 -5 -3 -8 -49 -8 -104 l0 -98 218 2
217 3 0 -34 0 -35 -347 -3 c-266 -2 -347 -6 -351 -15 -2 -7 -10 -13 -17 -13
-21 0 -115 -98 -115 -120 0 -10 -4 -22 -10 -25 -6 -3 -10 -19 -10 -34 0 -15
-6 -33 -12 -39 -17 -17 -18 -324 -2 -367 7 -16 20 -57 30 -90 13 -45 29 -71
64 -106 52 -52 65 -55 208 -62 l72 -3 0 121 c0 130 9 169 53 232 35 51 70 81
102 89 14 3 28 10 31 15 3 5 121 9 263 9 142 0 261 3 265 7 4 4 18 9 32 11 47
6 99 47 127 102 l27 52 0 257 c0 288 0 289 -71 360 -25 25 -54 43 -75 47 -19
3 -34 9 -34 13 0 8 -209 32 -261 30 -19 -1 -74 -7 -124 -13z m390 -51 c58 -25
100 -59 118 -98 25 -52 26 -531 1 -579 -21 -42 -57 -74 -98 -87 -17 -6 -146
-12 -286 -13 -251 -3 -256 -3 -311 -29 -59 -28 -96 -61 -133 -119 -34 -54 -46
-109 -46 -213 0 -108 1 -107 -88 -107 -109 0 -175 57 -206 177 -27 104 -31
136 -30 248 1 184 39 284 133 350 l43 30 330 5 c327 5 330 5 348 28 13 16 16
30 11 50 -12 43 -43 53 -166 51 -60 0 -143 0 -183 0 l-74 1 5 88 c8 153 19
172 117 210 65 25 134 31 305 27 131 -2 179 -7 210 -20z"/>
<path d="M1262 2794 c-98 -50 -73 -196 36 -211 84 -11 151 74 118 151 -27 64
-93 90 -154 60z m106 -34 c24 -23 30 -86 12 -120 -12 -22 -64 -42 -88 -33 -65
23 -83 99 -36 147 33 32 81 35 112 6z"/>
<path d="M2038 2334 c3 -68 0 -110 -7 -117 -6 -6 -11 -21 -11 -33 0 -37 -49
-111 -102 -156 l-52 -43 -265 -3 c-149 -2 -270 -7 -276 -13 -5 -5 -22 -9 -37
-9 -16 0 -34 -5 -41 -10 -7 -6 -24 -20 -40 -31 -15 -11 -36 -39 -47 -62 -18
-37 -20 -62 -20 -304 0 -192 3 -269 13 -286 18 -32 86 -97 103 -97 8 0 14 -4
14 -9 0 -5 15 -12 33 -16 17 -3 41 -10 52 -14 41 -17 123 -27 205 -26 101 2
190 14 190 26 0 5 10 9 23 9 42 1 147 62 147 86 0 8 4 14 10 14 22 0 40 74 40
166 0 51 -3 94 -7 96 -5 2 -96 1 -203 -2 -208 -5 -224 -2 -233 44 -4 20 -4 20
-6 0 0 -11 5 -29 13 -40 13 -17 31 -19 208 -24 l193 -5 2 -90 c3 -84 1 -93
-25 -129 -56 -80 -186 -126 -361 -126 -127 0 -211 17 -280 57 -108 63 -111 72
-111 367 0 276 5 305 67 352 62 47 115 55 363 52 254 -2 284 3 349 58 84 73
119 159 122 304 1 75 4 90 18 91 71 3 160 -5 182 -17 47 -24 77 -75 105 -180
22 -81 27 -121 28 -219 0 -106 -3 -130 -27 -200 -37 -108 -65 -155 -107 -179
-33 -20 -53 -21 -372 -24 -205 -2 -338 -7 -338 -12 0 -6 131 -10 338 -10 331
0 339 0 382 23 34 17 51 35 76 82 18 33 33 70 34 83 0 12 4 22 9 22 11 0 31
133 31 207 0 70 -20 234 -30 248 -4 6 -11 25 -15 44 -4 18 -21 53 -38 78 -43
65 -88 83 -207 83 l-95 0 3 -106z"/>
<path d="M1737 1413 c-41 -21 -63 -73 -51 -120 7 -28 20 -45 52 -66 48 -32 71
-31 114 6 58 51 59 116 2 167 -38 33 -72 37 -117 13z m116 -34 c40 -50 29
-106 -28 -141 -37 -22 -61 -16 -99 24 -24 26 -27 37 -22 67 8 50 49 84 96 77
19 -3 43 -15 53 -27z"/>
<path d="M1513 1026 l-23 -11 0 -337 0 -338 33 0 32 0 -3 169 -3 168 33 20
c66 39 98 45 132 25 42 -24 57 -100 48 -232 -10 -140 -8 -150 34 -150 l35 0
-3 184 -3 185 -29 30 c-28 29 -34 31 -100 31 -55 0 -77 -5 -96 -20 -49 -39
-51 -33 -49 132 1 84 -2 153 -7 154 -5 1 -19 -4 -31 -10z"/>
<path d="M1258 909 c-14 -8 -18 -24 -18 -74 0 -63 -1 -65 -25 -65 -18 0 -25
-5 -25 -20 0 -15 7 -20 25 -20 l25 0 0 -168 0 -168 28 -25 c30 -28 96 -54 112
-44 5 3 10 15 10 26 0 13 -7 19 -24 19 -15 0 -33 11 -46 27 -20 25 -21 37 -18
182 l3 156 43 -3 c41 -4 43 -2 40 20 -3 21 -7 23 -47 20 l-44 -3 6 76 c6 67 5
75 -11 75 -9 0 -25 -5 -34 -11z m29 -163 c-4 -9 -11 -16 -17 -16 -11 0 -14 33
-3 44 11 10 26 -11 20 -28z"/>
<path d="M420 781 c-8 -4 -37 -19 -65 -33 l-50 -25 -3 -297 -2 -296 26 -10
c46 -18 51 -14 48 37 -15 210 -13 218 36 193 11 -5 29 -14 40 -20 25 -13 67
-13 75 0 3 6 16 10 29 10 23 0 58 33 91 85 16 25 19 48 19 130 0 90 -3 104
-26 140 -44 68 -88 95 -155 94 -27 0 -55 -4 -63 -8z m134 -72 c14 -17 26 -39
26 -49 0 -10 4 -21 8 -24 4 -2 4 -45 1 -95 -9 -101 -27 -139 -78 -161 -25 -10
-38 -9 -83 7 l-53 19 -3 151 -3 152 28 14 c16 8 51 15 80 16 46 1 54 -2 77
-30z m-199 -319 c3 -5 3 -15 -1 -21 -6 -11 -23 6 -24 24 0 10 18 9 25 -3z"/>
<path d="M795 781 c-3 -6 -14 -11 -23 -11 -14 0 -18 -13 -21 -83 -9 -197 1
-281 37 -320 12 -12 41 -28 66 -36 45 -13 77 -8 143 22 38 17 52 3 46 -45 -11
-95 -44 -133 -124 -144 -54 -7 -62 -14 -53 -39 6 -14 15 -16 57 -11 89 12 167
67 167 117 0 15 5 31 10 34 6 4 10 100 10 254 l0 249 -22 6 c-49 13 -48 17
-48 -178 l0 -184 -55 -22 c-65 -27 -96 -22 -137 22 l-29 31 2 171 c1 158 -5
199 -26 167z"/>
<path d="M2033 775 c-42 -18 -93 -70 -93 -95 0 -10 -4 -22 -10 -25 -19 -12
-12 -168 10 -217 22 -49 38 -66 93 -97 95 -53 208 5 251 129 17 48 22 155 7
164 -4 3 -11 18 -14 34 -7 32 -68 102 -91 102 -8 0 -18 5 -21 10 -9 15 -95 11
-132 -5z m127 -48 c47 -37 62 -75 63 -165 2 -133 -37 -192 -128 -192 -83 0
-141 156 -100 270 24 67 60 100 109 100 23 0 48 -6 56 -13z"/>
<path d="M2515 781 c-3 -6 -14 -11 -24 -11 -21 0 -80 -28 -98 -46 -10 -9 -13
-63 -13 -198 l0 -186 35 0 35 0 0 188 0 187 27 13 c15 6 50 12 78 12 42 0 56
-5 76 -26 24 -25 24 -28 22 -200 l-2 -174 37 0 37 0 -3 187 c-4 203 -8 219
-59 245 -35 17 -138 23 -148 9z"/>
</g>
</svg>
