<?xml version="1.0" standalone="no"?>
<!DOCTYPE svg PUBLIC "-//W3C//DTD SVG 20010904//EN"
 "http://www.w3.org/TR/2001/REC-SVG-20010904/DTD/svg10.dtd">
<svg version="1.0" xmlns="http://www.w3.org/2000/svg"
 width="300.000000pt" height="300.000000pt" viewBox="0 0 300.000000 300.000000"
 preserveAspectRatio="xMidYMid meet">
<metadata>
Created by potrace 1.10, written by Peter Selinger 2001-2011
</metadata>
<g transform="translate(0.000000,300.000000) scale(0.100000,-0.100000)"
fill="#000000" stroke="none">
<path d="M1460 2923 c-239 -25 -379 -59 -485 -118 -60 -34 -123 -91 -144 -132
-18 -34 -15 -1263 2 -1306 49 -117 284 -216 569 -239 331 -28 657 41 799 169
79 71 74 23 74 723 0 693 4 647 -67 720 -41 42 -109 80 -203 114 -89 31 -147
42 -315 61 -133 15 -160 16 -230 8z m425 -157 c160 -43 275 -112 275 -166 0
-32 -63 -88 -137 -121 -117 -52 -401 -97 -546 -85 -258 21 -430 72 -509 150
-43 42 -44 46 -23 85 30 59 186 129 350 157 55 9 145 12 285 10 185 -3 215 -6
305 -30z m-708 -447 c109 -29 133 -32 323 -36 148 -3 229 0 290 10 112 19 229
51 280 77 22 11 52 25 65 30 l25 10 0 -112 0 -111 -43 -41 c-198 -190 -937
-190 -1143 0 l-44 40 0 106 c0 57 3 107 6 111 4 3 33 -7 65 -23 32 -17 111
-44 176 -61z m-152 -344 c45 -19 138 -47 206 -62 110 -24 146 -27 314 -27 235
0 400 29 537 96 32 15 63 28 68 28 6 0 10 -42 10 -102 0 -127 -12 -150 -96
-195 -142 -74 -268 -98 -519 -98 -198 0 -281 10 -395 47 -95 30 -153 62 -188
103 -32 35 -32 37 -32 140 0 58 3 105 7 105 4 0 44 -16 88 -35z m-8 -390 c99
-41 129 -49 270 -75 263 -48 629 -8 825 91 21 11 40 19 43 19 10 0 5 -182 -6
-203 -18 -33 -48 -56 -117 -88 -65 -31 -149 -56 -217 -65 -22 -3 -58 -10 -80
-15 -22 -5 -107 -9 -190 -9 -258 0 -500 63 -579 151 -36 39 -36 39 -36 134 0
52 1 95 3 95 1 0 39 -16 84 -35z"/>
<path d="M1499 960 c-98 -17 -209 -101 -254 -194 -49 -103 -51 -246 -4 -338
29 -57 95 -126 154 -159 27 -16 53 -29 58 -29 4 0 7 32 7 71 0 71 -1 73 -44
118 -26 29 -50 68 -60 99 -17 51 -17 55 3 120 43 140 149 209 273 177 63 -16
108 -60 143 -138 23 -50 27 -70 22 -117 -8 -88 -64 -176 -124 -194 -20 -6 -22
-3 -25 40 l-3 47 -55 0 -55 0 -3 -159 c-1 -87 -1 -163 1 -169 3 -6 29 -9 66
-7 l61 4 0 44 c0 39 3 44 28 50 87 21 168 94 216 194 28 59 31 74 31 160 0
129 -22 195 -91 269 -60 65 -119 98 -201 111 -65 11 -78 11 -144 0z"/>
<path d="M806 949 c-119 -28 -156 -111 -102 -232 25 -58 62 -99 194 -215 127
-113 114 -137 -77 -137 l-126 -1 -3 -68 -3 -68 143 4 c121 3 149 7 183 25 70
37 105 89 105 157 0 74 -44 137 -163 232 -145 116 -159 137 -115 168 17 12 49
16 135 16 l113 0 0 65 0 65 -122 -1 c-68 -1 -141 -5 -162 -10z"/>
<path d="M2030 652 c0 -280 2 -310 19 -342 34 -65 58 -75 192 -79 l120 -3 -3
73 -3 74 -68 6 c-115 10 -111 0 -115 314 l-3 265 -69 0 -70 0 0 -308z"/>
</g>
</svg>
