<?xml version="1.0" encoding="utf-8"?>
<!-- Generator: Adobe Illustrator 24.1.2, SVG Export Plug-In . SVG Version: 6.00 Build 0)  -->
<svg version="1.1" id="Warstwa_1" xmlns="http://www.w3.org/2000/svg" xmlns:xlink="http://www.w3.org/1999/xlink" x="0px" y="0px"
	 viewBox="0 0 430 430" style="enable-background:new 0 0 430 430;" xml:space="preserve">
<style type="text/css">
	.st0{fill:#121331;}
	.st1{fill:#000000;}
	.st2{fill:none;stroke:#121331;stroke-width:12;stroke-linecap:round;stroke-linejoin:round;stroke-miterlimit:10;}
	.st3{fill:#00A689;}
</style>
<g>
	<path class="st0" d="M352.71,48.88H77.29c-15.66,0-28.41,12.74-28.41,28.41v275.42c0,15.66,12.74,28.41,28.41,28.41h275.42
		c15.66,0,28.41-12.74,28.41-28.41V77.29C381.12,61.62,368.38,48.88,352.71,48.88z M77.29,60.88h275.42
		c9.05,0,16.41,7.36,16.41,16.41v22.97H60.88V77.29C60.88,68.24,68.24,60.88,77.29,60.88z M352.71,369.12H77.29
		c-9.05,0-16.41-7.36-16.41-16.41V112.25h308.24v240.46C369.12,361.76,361.76,369.12,352.71,369.12z"/>
	<g>
		<path class="st1" d="M139.25,183.79c-2.34-2.34-6.14-2.34-8.49,0c-2.34,2.34-2.34,6.14,0,8.49l48.41,48.41l-48.41,48.41
			c-2.34,2.34-2.34,6.14,0,8.48c1.17,1.17,2.71,1.76,4.24,1.76c1.54,0,3.07-0.59,4.24-1.76l52.65-52.65
			c1.13-1.13,1.76-2.65,1.76-4.24s-0.63-3.12-1.76-4.24L139.25,183.79z"/>
		<path class="st1" d="M142.86,88.07H143c4.14,0,7.5-3.36,7.5-7.5s-3.36-7.5-7.5-7.5h-0.14c-4.14,0-7.5,3.36-7.5,7.5
			S138.72,88.07,142.86,88.07z"/>
		<path class="st1" d="M86.7,73.07h-0.14c-4.14,0-7.5,3.36-7.5,7.5s3.36,7.5,7.5,7.5h0.14c4.14,0,7.5-3.36,7.5-7.5
			S90.85,73.07,86.7,73.07z"/>
		<path class="st1" d="M114.85,73.07h-0.14c-4.14,0-7.5,3.36-7.5,7.5s3.36,7.5,7.5,7.5h0.14c4.14,0,7.5-3.36,7.5-7.5
			S118.99,73.07,114.85,73.07z"/>
		<path class="st1" d="M303,287.33h-90.24c-3.31,0-6,2.69-6,6s2.69,6,6,6H303c3.31,0,6-2.69,6-6S306.31,287.33,303,287.33z"/>
	</g>
</g>
</svg>
