<?xml version="1.0" standalone="no"?>
<!DOCTYPE svg PUBLIC "-//W3C//DTD SVG 20010904//EN"
 "http://www.w3.org/TR/2001/REC-SVG-20010904/DTD/svg10.dtd">
<svg version="1.0" xmlns="http://www.w3.org/2000/svg"
 width="300.000000pt" height="300.000000pt" viewBox="0 0 300.000000 300.000000"
 preserveAspectRatio="xMidYMid meet">
<metadata>
Created by potrace 1.10, written by Peter Selinger 2001-2011
</metadata>
<g transform="translate(0.000000,300.000000) scale(0.100000,-0.100000)"
fill="#000000" stroke="none">
<path d="M1544 2686 c-135 -42 -262 -150 -328 -276 -21 -41 -40 -77 -42 -79
-2 -2 -36 11 -76 28 -69 31 -78 32 -173 28 -121 -5 -155 -14 -227 -60 -60 -38
-110 -101 -134 -169 -20 -57 -29 -193 -16 -240 l10 -38 -41 -10 c-137 -35
-256 -119 -312 -221 -26 -47 -30 -64 -29 -134 0 -99 25 -155 101 -232 59 -58
166 -115 253 -134 76 -16 222 -7 296 20 l61 22 54 -37 c72 -49 199 -108 279
-129 36 -9 112 -19 170 -22 88 -4 121 -2 195 17 97 24 211 73 281 120 l43 29
68 -35 c97 -50 161 -64 288 -64 205 0 344 61 475 208 80 90 140 240 140 352 0
156 -101 350 -232 443 -56 40 -80 53 -163 88 -38 17 -150 39 -195 39 l-46 0
-18 67 c-54 205 -210 369 -402 422 -53 15 -229 13 -280 -3z"/>
<path d="M432 874 c-41 -17 -72 -63 -117 -171 -21 -51 -41 -93 -45 -93 -4 0
-31 56 -59 124 -29 69 -59 130 -66 136 -24 20 -78 8 -94 -21 -13 -24 -10 -35
63 -195 85 -185 108 -217 156 -217 46 0 68 28 140 186 41 89 71 142 80 142 12
0 15 -24 17 -135 2 -74 5 -144 8 -156 6 -28 48 -46 80 -34 37 14 45 47 45 180
0 130 8 150 58 150 54 0 57 -8 62 -159 5 -147 10 -161 56 -175 13 -4 30 1 47
15 27 20 27 22 27 148 0 147 9 171 65 171 56 0 65 -24 65 -171 0 -126 0 -128
27 -148 30 -24 58 -20 86 11 14 17 17 41 17 159 0 152 -8 186 -54 229 -37 33
-122 43 -175 19 -21 -9 -41 -22 -45 -27 -4 -7 -20 -2 -43 13 -20 14 -43 25
-52 26 -54 3 -101 -5 -138 -26 -40 -22 -41 -22 -60 -3 -26 25 -113 39 -151 22z"/>
<path d="M1182 868 c-7 -7 -12 -17 -12 -22 1 -30 140 -392 154 -401 30 -19 49
9 92 136 71 211 57 208 122 24 47 -132 61 -161 78 -163 11 -2 26 3 32 10 14
18 142 374 142 397 0 21 -22 33 -43 25 -8 -3 -38 -77 -69 -166 l-55 -161 -53
154 c-29 85 -59 160 -65 168 -8 7 -21 10 -33 7 -15 -5 -32 -43 -73 -161 -29
-85 -56 -151 -60 -147 -4 4 -29 70 -55 147 -26 77 -51 146 -57 153 -12 15 -30
15 -45 0z"/>
<path d="M1901 867 c-51 -14 -71 -37 -53 -60 11 -12 19 -12 66 1 34 9 68 12
91 8 50 -10 95 -55 95 -95 0 -28 -1 -29 -30 -21 -17 5 -61 8 -98 7 -82 -3
-138 -29 -164 -77 -70 -133 103 -250 245 -167 l45 27 6 -25 c4 -15 14 -25 25
-25 38 0 43 22 39 177 -3 165 -15 200 -74 235 -40 23 -137 31 -193 15z m190
-223 c15 -9 10 -78 -7 -103 -38 -54 -142 -68 -193 -25 -49 41 -38 102 22 130
31 14 155 13 178 -2z"/>
<path d="M2252 872 c-9 -7 -12 -57 -10 -218 3 -197 4 -209 22 -212 35 -7 46
25 46 135 0 148 28 200 121 227 36 11 45 18 47 39 6 53 -74 44 -135 -16 -32
-30 -33 -30 -33 -8 0 47 -27 72 -58 53z"/>
<path d="M2615 868 c-86 -30 -139 -111 -139 -213 1 -180 185 -279 337 -179 38
25 50 60 22 70 -8 3 -27 -3 -42 -14 -99 -69 -216 -33 -248 76 l-6 22 154 0
c125 0 157 3 167 15 24 29 -11 146 -57 187 -47 43 -126 58 -188 36z m129 -69
c30 -24 56 -69 56 -99 0 -19 -6 -20 -123 -20 -68 0 -126 3 -130 6 -8 8 19 73
41 97 37 42 114 49 156 16z"/>
<path d="M2890 860 c-24 -24 -25 -38 -4 -68 18 -27 55 -29 77 -4 23 26 21 58
-5 76 -30 21 -44 20 -68 -4z m70 -19 c15 -28 -21 -71 -47 -55 -20 12 -28 37
-19 60 8 21 53 17 66 -5z"/>
<path d="M2907 843 c-17 -16 -6 -40 18 -40 20 0 25 5 25 23 0 17 -6 24 -18 24
-10 0 -22 -3 -25 -7z"/>
</g>
</svg>
