<?xml version="1.0" standalone="no"?>
<!DOCTYPE svg PUBLIC "-//W3C//DTD SVG 20010904//EN"
 "http://www.w3.org/TR/2001/REC-SVG-20010904/DTD/svg10.dtd">
<svg version="1.0" xmlns="http://www.w3.org/2000/svg"
 width="300.000000pt" height="300.000000pt" viewBox="0 0 300.000000 300.000000"
 preserveAspectRatio="xMidYMid meet">
<metadata>
Created by potrace 1.10, written by Peter Selinger 2001-2011
</metadata>
<g transform="translate(0.000000,300.000000) scale(0.050000,-0.050000)"
fill="#000000" stroke="none">
<path d="M4090 5879 c-33 -10 -195 -141 -360 -292 -165 -150 -595 -543 -956
-872 -395 -360 -667 -594 -684 -588 -14 6 -212 151 -438 322 -499 378 -480
373 -700 181 -334 -292 -335 -288 184 -760 190 -173 343 -321 340 -328 -3 -8
-170 -164 -371 -349 -456 -419 -462 -434 -240 -649 181 -175 228 -208 305
-210 77 -2 49 -21 579 383 l351 267 59 -50 c33 -28 457 -413 943 -857 486
-444 907 -823 936 -842 107 -71 181 -50 682 192 259 124 504 243 545 262 42
20 96 64 120 98 l45 63 5 1670 c6 1756 7 1734 -85 1820 -62 58 -1050 535
-1135 548 -36 5 -92 1 -125 -9z m190 -2340 c0 -588 -8 -1059 -17 -1059 -31 0
-1393 1043 -1393 1066 0 28 1375 1073 1395 1061 8 -5 15 -486 15 -1068z"/>
<path d="M4740 1079 l0 -162 -63 45 c-213 152 -465 -52 -430 -348 29 -250 247
-367 433 -234 l60 43 0 -42 c0 -36 12 -41 100 -41 l100 0 0 450 0 450 -100 0
-100 0 0 -161z m-48 -261 c92 -102 29 -338 -90 -338 -92 1 -142 67 -142 190 0
167 136 254 232 148z"/>
<path d="M280 1214 c0 -4 71 -200 158 -436 l159 -428 136 -6 137 -5 155 425
c185 505 180 456 48 456 l-108 0 -55 -155 c-30 -85 -82 -231 -115 -323 l-61
-168 -114 318 -114 318 -113 6 c-62 3 -113 2 -113 -2z"/>
<path d="M1420 1185 c-242 -121 -161 -408 137 -484 158 -41 203 -68 203 -121
0 -110 -185 -121 -429 -28 -25 10 -31 -5 -31 -79 0 -111 67 -141 320 -142 244
-1 350 83 350 279 0 137 -54 199 -209 241 -61 17 -145 39 -186 50 -79 22 -103
83 -51 135 33 33 214 30 315 -5 l83 -30 -6 94 c-6 87 -11 96 -66 108 -130 27
-358 18 -430 -18z"/>
<path d="M2790 1183 c-238 -108 -321 -432 -171 -668 149 -235 661 -268 661
-42 l0 88 -60 -31 c-283 -146 -545 112 -407 403 56 118 260 169 387 97 74 -42
80 -38 80 57 0 83 -3 88 -77 110 -117 35 -320 28 -413 -14z"/>
<path d="M3662 1001 c-283 -71 -336 -480 -80 -631 171 -101 429 -35 513 130
149 294 -101 584 -433 501z m217 -194 c75 -95 42 -296 -52 -320 -119 -30 -187
38 -187 186 0 172 144 254 239 134z"/>
<path d="M5342 1001 c-283 -71 -336 -480 -80 -631 160 -94 518 -38 518 82 0
77 -13 81 -130 39 -162 -59 -330 -12 -330 90 0 36 16 39 243 39 l242 0 -9 97
c-21 215 -223 342 -454 284z m194 -152 c92 -65 58 -109 -86 -109 -129 0 -153
15 -115 72 45 66 135 83 201 37z"/>
</g>
</svg>
