<?xml version="1.0" standalone="no"?>
<!DOCTYPE svg PUBLIC "-//W3C//DTD SVG 20010904//EN"
 "http://www.w3.org/TR/2001/REC-SVG-20010904/DTD/svg10.dtd">
<svg version="1.0" xmlns="http://www.w3.org/2000/svg"
 width="300.000000pt" height="300.000000pt" viewBox="0 0 300.000000 300.000000"
 preserveAspectRatio="xMidYMid meet">
<metadata>
Created by potrace 1.10, written by Peter Selinger 2001-2011
</metadata>
<g transform="translate(0.000000,300.000000) scale(0.100000,-0.100000)"
fill="#000000" stroke="none">
<path d="M1460 2919 c-197 -19 -439 -112 -590 -228 -402 -305 -569 -832 -415
-1306 170 -521 691 -863 1228 -807 276 29 509 137 708 329 319 307 437 770
303 1193 -95 302 -314 560 -599 702 -188 94 -423 138 -635 117z m509 -794
c310 -3 378 -9 404 -39 10 -12 16 -15 12 -8 -9 17 -2 15 39 -9 20 -12 36 -26
36 -33 0 -16 39 -48 50 -41 6 3 7 -1 4 -9 -3 -9 2 -17 15 -21 41 -13 85 -117
100 -238 23 -193 -72 -374 -237 -449 -73 -33 -174 -48 -340 -48 -105 0 -142 9
-142 35 0 8 -6 15 -14 15 -8 0 -17 7 -20 16 -3 9 -8 154 -10 322 -5 377 -4
366 -36 370 -13 2 -30 11 -37 20 -11 16 -12 15 -13 -2 0 -15 -5 -17 -30 -12
-38 7 -38 7 -86 -198 -19 -83 -46 -189 -59 -236 -13 -47 -31 -121 -40 -165
-19 -90 -51 -148 -77 -141 -10 2 -22 -2 -29 -10 -22 -27 -58 -16 -105 33 -24
26 -47 59 -50 73 -3 14 -19 60 -35 102 -16 42 -29 88 -29 102 0 14 -4 28 -10
31 -5 3 -10 14 -10 23 0 10 -9 34 -19 54 -11 19 -17 38 -14 42 3 3 -1 16 -9
28 -8 13 -18 36 -22 51 -9 39 -28 29 -45 -24 -8 -24 -21 -60 -30 -79 -9 -19
-16 -42 -17 -50 -4 -28 -33 -127 -54 -181 -11 -30 -20 -62 -20 -71 0 -9 -6
-23 -12 -30 -7 -7 -13 -19 -14 -25 -1 -7 -2 -19 -2 -26 -2 -17 -81 -67 -105
-67 -26 0 -77 32 -77 48 0 8 -9 16 -20 19 -12 3 -23 17 -26 32 -5 26 -8 38
-44 181 -21 82 -33 133 -48 195 -5 22 -15 54 -20 70 -19 54 -52 198 -56 241
-1 16 -6 36 -10 42 -16 26 68 76 109 66 27 -7 68 -51 60 -64 -3 -4 1 -23 9
-41 8 -19 30 -117 50 -219 41 -204 63 -290 74 -290 14 0 72 174 101 300 4 19
17 55 28 80 11 25 28 75 38 111 22 86 61 129 113 129 29 0 43 -7 65 -31 15
-17 27 -39 27 -48 0 -9 4 -21 9 -26 4 -6 18 -44 31 -85 12 -41 26 -84 30 -95
5 -11 15 -45 24 -75 43 -149 82 -260 92 -260 11 0 35 71 40 120 4 39 34 180
50 235 8 27 20 82 26 122 5 39 18 84 27 99 20 32 74 55 115 47 16 -3 149 -6
295 -8z"/>
<path d="M2143 1982 l-103 -3 0 -294 0 -295 73 -2 c103 -3 124 -1 197 19 53
15 66 23 68 41 2 13 8 20 14 16 7 -4 8 -2 4 4 -4 6 7 36 24 66 27 48 31 63 31
140 1 63 -3 93 -15 111 -9 13 -16 30 -16 38 0 30 -54 94 -98 117 -26 13 -54
29 -62 34 -9 7 -57 10 -117 8z"/>
<path d="M1293 1463 c4 -3 10 -3 14 0 3 4 0 7 -7 7 -7 0 -10 -3 -7 -7z"/>
<path d="M690 520 c0 -28 2 -30 40 -30 38 0 40 2 40 30 0 28 -2 30 -40 30 -38
0 -40 -2 -40 -30z"/>
<path d="M2110 520 c0 -28 2 -30 40 -30 38 0 40 2 40 30 0 28 -2 30 -40 30
-38 0 -40 -2 -40 -30z"/>
<path d="M174 508 c3 -13 20 -85 38 -160 l32 -138 51 0 50 0 24 104 c13 57 27
109 30 115 4 6 20 -41 35 -104 l28 -115 48 0 c38 0 50 4 54 18 12 41 66 275
66 288 0 10 -12 14 -38 14 l-38 0 -24 -105 c-12 -58 -26 -105 -30 -105 -4 0
-18 47 -30 105 l-24 105 -43 0 c-38 0 -43 -3 -49 -27 -16 -72 -46 -188 -49
-191 -2 -2 -13 39 -25 90 -31 137 -26 128 -72 128 -37 0 -40 -2 -34 -22z"/>
<path d="M1160 369 l0 -161 108 3 c118 5 157 21 187 79 23 45 19 130 -8 171
-36 54 -77 69 -189 69 l-98 0 0 -161z m175 91 c16 -6 32 -24 41 -47 31 -74
-15 -143 -96 -143 l-30 0 0 100 0 100 29 0 c16 0 41 -4 56 -10z"/>
<path d="M946 439 c-21 -17 -26 -18 -26 -5 0 12 -10 16 -40 16 l-40 0 0 -120
0 -120 40 0 40 0 0 73 c0 78 16 117 49 117 33 0 41 -22 41 -107 l0 -83 41 0
41 0 -4 101 c-3 96 -4 102 -31 125 -34 29 -76 31 -111 3z"/>
<path d="M1584 444 c-40 -20 -64 -63 -64 -117 0 -97 95 -149 213 -116 32 9 37
14 37 39 l0 29 -41 -14 c-23 -8 -51 -15 -63 -15 -27 0 -66 27 -66 46 0 11 18
14 90 14 l90 0 0 30 c0 93 -106 149 -196 104z m100 -50 c26 -26 18 -34 -34
-34 -54 0 -59 4 -33 32 20 22 46 23 67 2z"/>
<path d="M1880 453 c-32 -12 -50 -37 -50 -70 0 -45 27 -69 88 -78 55 -7 74
-28 40 -46 -19 -10 -39 -9 -103 7 -25 6 -26 4 -23 -22 3 -32 25 -41 96 -43 90
-2 138 43 116 108 -9 25 -42 41 -116 56 -16 3 -28 12 -28 20 0 17 40 29 69 21
12 -3 30 -9 41 -12 17 -4 20 -1 20 24 0 25 -5 30 -31 36 -37 7 -98 7 -119 -1z"/>
<path d="M2290 433 c-81 -73 -43 -223 57 -223 21 0 49 7 61 16 20 14 22 14 22
-4 0 -50 -57 -70 -133 -48 -27 8 -28 7 -25 -20 3 -26 8 -30 49 -38 62 -12 113
-1 152 34 l32 28 3 136 4 136 -41 0 c-31 0 -41 -4 -41 -16 0 -13 -5 -12 -26 5
-37 29 -77 27 -114 -6z m124 -49 c23 -22 20 -80 -4 -104 -24 -24 -29 -24 -58
-4 -17 11 -22 25 -22 58 0 23 5 47 12 54 17 17 54 15 72 -4z"/>
<path d="M2710 453 c-8 -3 -23 -12 -32 -21 -16 -14 -18 -13 -18 1 0 13 -9 17
-40 17 l-40 0 0 -120 0 -120 40 0 40 0 0 75 c0 62 4 79 20 95 47 47 70 18 70
-87 l0 -83 40 0 40 0 0 90 c0 49 -5 100 -11 113 -17 37 -67 55 -109 40z"/>
<path d="M690 330 l0 -120 40 0 40 0 0 120 0 120 -40 0 -40 0 0 -120z"/>
<path d="M2110 330 l0 -120 40 0 40 0 0 120 0 120 -40 0 -40 0 0 -120z"/>
</g>
</svg>
